<svg xmlns="http://www.w3.org/2000/svg" xmlns:xlink="http://www.w3.org/1999/xlink" width="900" zoomAndPan="magnify" viewBox="0 0 675 675.000002" height="900" preserveAspectRatio="xMidYMid meet" version="1.0"><defs><clipPath id="5b39426a93"><path d="M 367 540 L 438 540 L 438 640.300781 L 367 640.300781 Z M 367 540 " clip-rule="nonzero"/></clipPath><clipPath id="94d94db76a"><path d="M 98.652344 177 L 139 177 L 139 278 L 98.652344 278 Z M 98.652344 177 " clip-rule="nonzero"/></clipPath><clipPath id="28a3644269"><path d="M 343 33.699219 L 576.441406 33.699219 L 576.441406 288 L 343 288 Z M 343 33.699219 " clip-rule="nonzero"/></clipPath></defs><path fill="#dc3832" d="M 223.164062 247.503906 C 212.1875 247.503906 203.273438 238.585938 203.273438 227.613281 C 203.273438 216.640625 212.1875 207.726562 223.164062 207.726562 C 234.140625 207.726562 243.058594 216.640625 243.058594 227.613281 C 243.058594 238.585938 234.140625 247.503906 223.164062 247.503906 Z M 253.003906 197.78125 L 193.328125 197.78125 L 193.328125 257.445312 L 253.003906 257.445312 L 253.003906 197.78125 " fill-opacity="1" fill-rule="nonzero"/><g clip-path="url(#5b39426a93)"><path fill="#dc3832" d="M 402.199219 590.578125 C 410.433594 590.578125 417.117188 597.28125 417.117188 605.496094 C 417.117188 613.710938 410.433594 620.414062 402.199219 620.414062 C 393.960938 620.414062 387.277344 613.710938 387.277344 605.496094 C 387.277344 597.28125 393.960938 590.578125 402.199219 590.578125 Z M 402.199219 550.804688 C 410.433594 550.804688 417.117188 557.503906 417.117188 565.71875 C 417.117188 573.933594 410.433594 580.636719 402.199219 580.636719 C 393.960938 580.636719 387.277344 573.933594 387.277344 565.71875 C 387.277344 557.503906 393.960938 550.804688 402.199219 550.804688 Z M 367.386719 640.300781 L 437.007812 640.300781 L 437.007812 540.859375 L 367.386719 540.859375 L 367.386719 640.300781 " fill-opacity="1" fill-rule="nonzero"/></g><path fill="#dc3832" d="M 372.359375 327.054688 L 372.359375 371.804688 L 432.035156 371.804688 L 432.035156 327.054688 L 372.359375 327.054688 " fill-opacity="1" fill-rule="nonzero"/><path fill="#dc3832" d="M 451.929688 381.75 L 352.464844 381.75 C 349.726562 381.75 347.492188 383.984375 347.492188 386.722656 L 347.492188 406.609375 C 347.492188 409.347656 349.726562 411.582031 352.464844 411.582031 L 451.929688 411.582031 C 454.667969 411.582031 456.902344 409.347656 456.902344 406.609375 L 456.902344 386.722656 C 456.902344 383.984375 454.667969 381.75 451.929688 381.75 " fill-opacity="1" fill-rule="nonzero"/><path fill="#dc3832" d="M 402.199219 431.472656 C 421.390625 431.472656 437.007812 447.085938 437.007812 466.277344 C 437.007812 485.464844 421.390625 501.082031 402.199219 501.082031 C 383.003906 501.082031 367.386719 485.464844 367.386719 466.277344 C 367.386719 447.085938 383.003906 431.472656 402.199219 431.472656 Z M 357.4375 456.332031 C 357.4375 467.832031 359.710938 475.636719 362.335938 484.667969 C 364.121094 490.789062 365.96875 497.140625 367.308594 505.238281 C 367.367188 505.511719 367.386719 505.78125 367.386719 506.054688 L 367.386719 511.027344 L 437.007812 511.027344 L 437.007812 506.054688 C 437.007812 505.78125 437.027344 505.511719 437.085938 505.238281 C 438.425781 497.140625 440.273438 490.789062 442.058594 484.667969 C 444.683594 475.636719 446.957031 467.832031 446.957031 456.332031 L 446.957031 421.527344 L 357.4375 421.527344 L 357.4375 456.332031 " fill-opacity="1" fill-rule="nonzero"/><path fill="#dc3832" d="M 367.386719 530.914062 L 437.007812 530.914062 L 437.007812 520.96875 L 367.386719 520.96875 L 367.386719 530.914062 " fill-opacity="1" fill-rule="nonzero"/><path fill="#dc3832" d="M 402.199219 491.136719 C 415.914062 491.136719 427.0625 479.988281 427.0625 466.277344 C 427.0625 452.5625 415.914062 441.414062 402.199219 441.414062 C 388.480469 441.414062 377.332031 452.5625 377.332031 466.277344 C 377.332031 479.988281 388.480469 491.136719 402.199219 491.136719 " fill-opacity="1" fill-rule="nonzero"/><path fill="#dc3832" d="M 402.199219 570.691406 C 404.9375 570.691406 407.171875 568.457031 407.171875 565.71875 C 407.171875 562.980469 404.9375 560.746094 402.199219 560.746094 C 399.457031 560.746094 397.222656 562.980469 397.222656 565.71875 C 397.222656 568.457031 399.457031 570.691406 402.199219 570.691406 " fill-opacity="1" fill-rule="nonzero"/><path fill="#dc3832" d="M 243.058594 282.308594 C 243.058594 285.046875 245.292969 287.28125 248.03125 287.28125 L 255.042969 287.28125 C 253.78125 284.792969 253.003906 282.015625 253.003906 279.042969 L 253.003906 267.390625 L 243.058594 267.390625 L 243.058594 282.308594 " fill-opacity="1" fill-rule="nonzero"/><path fill="#dc3832" d="M 223.164062 217.667969 C 217.6875 217.667969 213.21875 222.136719 213.21875 227.613281 C 213.21875 233.089844 217.6875 237.558594 223.164062 237.558594 C 228.644531 237.558594 233.113281 233.089844 233.113281 227.613281 C 233.113281 222.136719 228.644531 217.667969 223.164062 217.667969 " fill-opacity="1" fill-rule="nonzero"/><path fill="#dc3832" d="M 377.332031 83.285156 L 377.332031 73.476562 C 377.332031 70.738281 375.097656 68.503906 372.359375 68.503906 L 342.519531 68.503906 C 339.78125 68.503906 337.546875 70.738281 337.546875 73.476562 L 337.546875 83.421875 L 376.886719 83.421875 C 377.039062 83.382812 377.175781 83.324219 377.332031 83.285156 " fill-opacity="1" fill-rule="nonzero"/><path fill="#dc3832" d="M 270.953125 287.28125 L 328.085938 287.28125 C 332.417969 287.28125 337.546875 281.878906 337.546875 277.335938 L 337.546875 153.03125 C 337.546875 152.253906 337.722656 151.496094 338.070312 150.796875 L 343.042969 140.875 C 347.921875 132.8125 349.589844 119.488281 343.742188 108.882812 C 338.304688 99 327.523438 93.636719 312.585938 93.367188 C 281.539062 93.367188 262.949219 110.089844 262.949219 138.113281 L 262.949219 279.042969 C 262.949219 283.589844 266.542969 287.28125 270.953125 287.28125 " fill-opacity="1" fill-rule="nonzero"/><path fill="#dc3832" d="M 178.835938 177.890625 L 148.570312 177.890625 L 148.570312 277.316406 L 178.835938 277.316406 C 181.339844 277.316406 183.378906 275.296875 183.378906 272.769531 L 183.378906 182.4375 C 183.378906 179.929688 181.339844 177.890625 178.835938 177.890625 " fill-opacity="1" fill-rule="nonzero"/><g clip-path="url(#94d94db76a)"><path fill="#dc3832" d="M 98.835938 192.808594 L 98.835938 262.398438 C 98.835938 270.632812 105.519531 277.316406 113.757812 277.316406 L 138.621094 277.316406 L 138.621094 177.890625 L 113.757812 177.890625 C 105.519531 177.890625 98.835938 184.574219 98.835938 192.808594 " fill-opacity="1" fill-rule="nonzero"/></g><path fill="#dc3832" d="M 233.113281 167.949219 C 233.113281 165.210938 230.878906 162.976562 228.136719 162.976562 L 218.191406 162.976562 C 215.453125 162.976562 213.21875 165.210938 213.21875 167.949219 L 213.21875 187.835938 L 233.113281 187.835938 L 233.113281 167.949219 " fill-opacity="1" fill-rule="nonzero"/><path fill="#dc3832" d="M 402.199219 610.46875 C 404.9375 610.46875 407.171875 608.234375 407.171875 605.496094 C 407.171875 602.757812 404.9375 600.523438 402.199219 600.523438 C 399.457031 600.523438 397.222656 602.757812 397.222656 605.496094 C 397.222656 608.234375 399.457031 610.46875 402.199219 610.46875 " fill-opacity="1" fill-rule="nonzero"/><path fill="#dc3832" d="M 233.113281 282.308594 L 233.113281 267.390625 L 213.21875 267.390625 L 213.21875 292.25 C 213.21875 305.964844 224.371094 317.113281 238.085938 317.113281 L 481.765625 317.113281 L 481.765625 297.222656 L 248.03125 297.222656 C 239.792969 297.222656 233.113281 290.542969 233.113281 282.308594 " fill-opacity="1" fill-rule="nonzero"/><path fill="#dc3832" d="M 461.875 153.03125 C 445.421875 153.03125 432.035156 166.414062 432.035156 182.863281 C 432.035156 199.316406 445.421875 212.695312 461.875 212.695312 C 478.328125 212.695312 491.714844 199.316406 491.714844 182.863281 C 491.714844 166.414062 478.328125 153.03125 461.875 153.03125 " fill-opacity="1" fill-rule="nonzero"/><g clip-path="url(#28a3644269)"><path fill="#dc3832" d="M 551.390625 277.335938 C 543.152344 277.335938 536.472656 270.652344 536.472656 262.417969 C 536.472656 254.183594 543.152344 247.503906 551.390625 247.503906 C 559.628906 247.503906 566.308594 254.183594 566.308594 262.417969 C 566.308594 270.652344 559.628906 277.335938 551.390625 277.335938 Z M 461.875 277.335938 C 409.773438 277.335938 367.386719 234.957031 367.386719 182.863281 C 367.386719 130.773438 409.773438 88.394531 461.875 88.394531 C 513.976562 88.394531 556.363281 130.773438 556.363281 182.863281 C 556.363281 234.957031 513.976562 277.335938 461.875 277.335938 Z M 417.117188 53.589844 C 417.117188 48.113281 421.585938 43.644531 427.0625 43.644531 L 476.792969 43.644531 C 482.273438 43.644531 486.742188 48.113281 486.742188 53.589844 L 486.742188 63.53125 C 486.742188 69.011719 482.273438 73.476562 476.792969 73.476562 L 427.0625 73.476562 C 421.585938 73.476562 417.117188 69.011719 417.117188 63.53125 Z M 530.117188 93.171875 C 518.910156 90.355469 508.847656 74.195312 497.210938 50.832031 C 490.003906 36.339844 484.679688 33.699219 476.792969 33.699219 L 427.0625 33.699219 C 419.175781 33.699219 413.851562 36.339844 406.644531 50.832031 C 404.21875 55.726562 402.429688 60.890625 400.703125 65.882812 C 397.222656 75.90625 393.570312 86.101562 384.925781 90.859375 C 384.617188 91.054688 384.324219 91.25 383.996094 91.382812 C 382.226562 92.21875 380.34375 92.917969 378.148438 93.289062 C 377.875 93.347656 377.605469 93.367188 377.332031 93.367188 L 343.335938 93.367188 C 347.027344 96.335938 350.136719 99.890625 352.445312 104.085938 C 359.324219 116.554688 359.03125 133.667969 351.746094 145.671875 L 347.492188 154.195312 L 347.492188 277.335938 C 347.492188 280.8125 346.289062 284.25 344.367188 287.28125 L 551.390625 287.28125 C 552.285156 287.28125 553.140625 287.394531 553.992188 287.53125 C 554.421875 287.433594 554.847656 287.28125 555.296875 287.28125 C 567.105469 287.28125 576.257812 273.917969 576.257812 262.417969 L 576.257812 153.03125 C 576.257812 119.042969 563.746094 102.824219 530.117188 93.171875 " fill-opacity="1" fill-rule="nonzero"/></g><path fill="#dc3832" d="M 461.875 222.640625 C 439.941406 222.640625 422.089844 204.792969 422.089844 182.863281 C 422.089844 160.9375 439.941406 143.085938 461.875 143.085938 C 483.808594 143.085938 501.660156 160.9375 501.660156 182.863281 C 501.660156 204.792969 483.808594 222.640625 461.875 222.640625 Z M 461.875 118.226562 C 426.226562 118.226562 397.222656 147.222656 397.222656 182.863281 C 397.222656 218.503906 426.226562 247.503906 461.875 247.503906 C 497.523438 247.503906 526.523438 218.503906 526.523438 182.863281 C 526.523438 147.222656 497.523438 118.226562 461.875 118.226562 " fill-opacity="1" fill-rule="nonzero"/><path fill="#dc3832" d="M 551.390625 257.445312 C 548.652344 257.445312 546.417969 259.679688 546.417969 262.417969 C 546.417969 265.15625 548.652344 267.390625 551.390625 267.390625 C 554.128906 267.390625 556.363281 265.15625 556.363281 262.417969 C 556.363281 259.679688 554.128906 257.445312 551.390625 257.445312 " fill-opacity="1" fill-rule="nonzero"/><path fill="#dc3832" d="M 461.875 257.445312 C 420.75 257.445312 387.277344 224 387.277344 182.863281 C 387.277344 141.746094 420.75 108.28125 461.875 108.28125 C 503 108.28125 536.472656 141.746094 536.472656 182.863281 C 536.472656 224 503 257.445312 461.875 257.445312 Z M 461.875 98.339844 C 415.25 98.339844 377.332031 136.25 377.332031 182.863281 C 377.332031 229.476562 415.25 267.390625 461.875 267.390625 C 508.496094 267.390625 546.417969 229.476562 546.417969 182.863281 C 546.417969 136.25 508.496094 98.339844 461.875 98.339844 " fill-opacity="1" fill-rule="nonzero"/><path fill="#dc3832" d="M 491.714844 325.5625 L 499.347656 337 L 523.863281 337 L 531.5 325.5625 L 531.5 297.222656 L 491.714844 297.222656 L 491.714844 325.5625 " fill-opacity="1" fill-rule="nonzero"/><path fill="#dc3832" d="M 476.792969 53.589844 L 427.0625 53.589844 L 427.0625 63.53125 L 476.773438 63.53125 L 476.792969 53.589844 " fill-opacity="1" fill-rule="nonzero"/><path fill="#dc3832" d="M 551.390625 297.222656 L 541.445312 297.222656 L 541.445312 317.113281 L 551.390625 317.113281 C 554.128906 317.113281 556.363281 314.878906 556.363281 312.140625 L 556.363281 302.195312 C 556.363281 299.457031 554.128906 297.222656 551.390625 297.222656 " fill-opacity="1" fill-rule="nonzero"/><path fill="#dc3832" d="M 501.660156 351.917969 C 501.660156 354.65625 503.894531 356.890625 506.632812 356.890625 L 516.578125 356.890625 C 519.316406 356.890625 521.550781 354.65625 521.550781 351.917969 L 521.550781 346.945312 L 501.660156 346.945312 L 501.660156 351.917969 " fill-opacity="1" fill-rule="nonzero"/></svg>