<svg xmlns="http://www.w3.org/2000/svg" xmlns:xlink="http://www.w3.org/1999/xlink" width="900" zoomAndPan="magnify" viewBox="0 0 675 675.000002" height="900" preserveAspectRatio="xMidYMid meet" version="1.0"><defs><clipPath id="bcb250f5e9"><path d="M 72.738281 72.238281 L 602.203125 72.238281 L 602.203125 601.703125 L 72.738281 601.703125 Z M 72.738281 72.238281 " clip-rule="nonzero"/></clipPath></defs><g clip-path="url(#bcb250f5e9)"><path fill="#dc3832" d="M 558.082031 72.238281 L 116.859375 72.238281 C 115.414062 72.238281 113.972656 72.3125 112.535156 72.457031 C 111.097656 72.597656 109.671875 72.8125 108.253906 73.09375 C 106.839844 73.378906 105.4375 73.730469 104.058594 74.148438 C 102.675781 74.570312 101.316406 75.058594 99.984375 75.609375 C 98.648438 76.164062 97.34375 76.78125 96.070312 77.464844 C 94.796875 78.144531 93.558594 78.886719 92.359375 79.691406 C 91.15625 80.492188 90 81.351562 88.882812 82.269531 C 87.765625 83.1875 86.695312 84.15625 85.675781 85.175781 C 84.652344 86.199219 83.683594 87.265625 82.769531 88.382812 C 81.851562 89.5 80.992188 90.660156 80.1875 91.859375 C 79.386719 93.058594 78.644531 94.296875 77.960938 95.570312 C 77.28125 96.84375 76.664062 98.148438 76.109375 99.484375 C 75.554688 100.816406 75.070312 102.175781 74.648438 103.558594 C 74.226562 104.941406 73.875 106.339844 73.59375 107.757812 C 73.3125 109.171875 73.097656 110.601562 72.953125 112.039062 C 72.8125 113.476562 72.738281 114.914062 72.738281 116.359375 L 72.738281 557.582031 C 72.738281 559.027344 72.8125 560.46875 72.953125 561.90625 C 73.097656 563.34375 73.3125 564.769531 73.59375 566.1875 C 73.875 567.601562 74.226562 569 74.648438 570.382812 C 75.070312 571.765625 75.554688 573.125 76.109375 574.457031 C 76.664062 575.792969 77.28125 577.097656 77.960938 578.371094 C 78.644531 579.644531 79.386719 580.882812 80.1875 582.082031 C 80.992188 583.28125 81.851562 584.441406 82.769531 585.558594 C 83.683594 586.675781 84.652344 587.742188 85.675781 588.765625 C 86.695312 589.785156 87.765625 590.757812 88.882812 591.671875 C 90 592.589844 91.15625 593.449219 92.359375 594.25 C 93.558594 595.054688 94.796875 595.796875 96.070312 596.480469 C 97.34375 597.160156 98.648438 597.777344 99.984375 598.332031 C 101.316406 598.886719 102.675781 599.371094 104.058594 599.792969 C 105.4375 600.210938 106.839844 600.5625 108.253906 600.847656 C 109.671875 601.128906 111.097656 601.34375 112.535156 601.488281 C 113.972656 601.628906 115.414062 601.703125 116.859375 601.703125 L 558.082031 601.703125 C 559.523438 601.703125 560.964844 601.628906 562.402344 601.488281 C 563.839844 601.34375 565.269531 601.128906 566.683594 600.847656 C 568.101562 600.5625 569.5 600.210938 570.882812 599.792969 C 572.265625 599.371094 573.625 598.886719 574.957031 598.332031 C 576.292969 597.777344 577.597656 597.160156 578.871094 596.476562 C 580.144531 595.796875 581.378906 595.054688 582.582031 594.25 C 583.78125 593.449219 584.941406 592.589844 586.058594 591.671875 C 587.175781 590.757812 588.242188 589.785156 589.265625 588.765625 C 590.285156 587.742188 591.253906 586.675781 592.171875 585.558594 C 593.089844 584.441406 593.949219 583.28125 594.75 582.082031 C 595.554688 580.882812 596.296875 579.644531 596.976562 578.371094 C 597.660156 577.097656 598.277344 575.792969 598.832031 574.457031 C 599.382812 573.125 599.871094 571.765625 600.292969 570.382812 C 600.710938 569 601.0625 567.601562 601.347656 566.1875 C 601.628906 564.769531 601.84375 563.34375 601.984375 561.90625 C 602.128906 560.46875 602.199219 559.027344 602.203125 557.582031 L 602.203125 116.359375 C 602.199219 114.914062 602.128906 113.476562 601.984375 112.039062 C 601.84375 110.601562 601.628906 109.171875 601.347656 107.757812 C 601.0625 106.339844 600.710938 104.941406 600.292969 103.558594 C 599.871094 102.175781 599.382812 100.816406 598.832031 99.484375 C 598.277344 98.148438 597.660156 96.84375 596.976562 95.570312 C 596.296875 94.296875 595.554688 93.058594 594.75 91.859375 C 593.949219 90.660156 593.089844 89.5 592.171875 88.382812 C 591.253906 87.265625 590.285156 86.199219 589.265625 85.175781 C 588.242188 84.15625 587.175781 83.1875 586.058594 82.269531 C 584.941406 81.351562 583.78125 80.492188 582.582031 79.691406 C 581.378906 78.886719 580.144531 78.144531 578.871094 77.464844 C 577.597656 76.78125 576.292969 76.164062 574.957031 75.609375 C 573.625 75.058594 572.265625 74.570312 570.882812 74.148438 C 569.5 73.730469 568.101562 73.378906 566.683594 73.09375 C 565.269531 72.8125 563.839844 72.597656 562.402344 72.457031 C 560.964844 72.3125 559.523438 72.238281 558.082031 72.238281 Z M 116.859375 89.886719 L 558.082031 89.886719 C 558.949219 89.886719 559.8125 89.929688 560.675781 90.015625 C 561.539062 90.101562 562.394531 90.230469 563.242188 90.402344 C 564.09375 90.570312 564.933594 90.78125 565.761719 91.035156 C 566.589844 91.285156 567.40625 91.578125 568.207031 91.910156 C 569.007812 92.242188 569.789062 92.613281 570.554688 93.023438 C 571.320312 93.429688 572.0625 93.875 572.78125 94.359375 C 573.503906 94.839844 574.199219 95.355469 574.867188 95.90625 C 575.539062 96.457031 576.179688 97.035156 576.792969 97.648438 C 577.40625 98.261719 577.984375 98.902344 578.535156 99.574219 C 579.085938 100.242188 579.601562 100.9375 580.082031 101.660156 C 580.566406 102.378906 581.011719 103.121094 581.417969 103.886719 C 581.828125 104.652344 582.199219 105.433594 582.53125 106.234375 C 582.863281 107.035156 583.15625 107.847656 583.40625 108.679688 C 583.660156 109.507812 583.871094 110.347656 584.039062 111.199219 C 584.210938 112.046875 584.339844 112.902344 584.425781 113.765625 C 584.507812 114.628906 584.554688 115.492188 584.554688 116.359375 L 584.554688 178.132812 L 90.386719 178.132812 L 90.386719 116.359375 C 90.386719 115.492188 90.429688 114.628906 90.515625 113.765625 C 90.601562 112.902344 90.730469 112.046875 90.898438 111.199219 C 91.070312 110.347656 91.28125 109.507812 91.53125 108.679688 C 91.785156 107.847656 92.078125 107.035156 92.410156 106.234375 C 92.742188 105.433594 93.113281 104.652344 93.519531 103.886719 C 93.929688 103.121094 94.375 102.378906 94.855469 101.660156 C 95.339844 100.9375 95.855469 100.242188 96.40625 99.574219 C 96.953125 98.902344 97.535156 98.261719 98.148438 97.648438 C 98.761719 97.035156 99.402344 96.457031 100.074219 95.90625 C 100.742188 95.355469 101.4375 94.839844 102.160156 94.359375 C 102.878906 93.875 103.621094 93.429688 104.386719 93.023438 C 105.148438 92.613281 105.933594 92.242188 106.734375 91.910156 C 107.535156 91.578125 108.347656 91.285156 109.179688 91.035156 C 110.007812 90.78125 110.847656 90.570312 111.695312 90.402344 C 112.546875 90.230469 113.402344 90.101562 114.265625 90.015625 C 115.128906 89.929688 115.992188 89.886719 116.859375 89.886719 Z M 558.082031 584.054688 L 116.859375 584.054688 C 115.992188 584.054688 115.128906 584.011719 114.265625 583.925781 C 113.402344 583.839844 112.546875 583.710938 111.695312 583.542969 C 110.847656 583.371094 110.007812 583.160156 109.179688 582.90625 C 108.347656 582.65625 107.535156 582.363281 106.734375 582.03125 C 105.933594 581.699219 105.148438 581.328125 104.386719 580.921875 C 103.621094 580.511719 102.878906 580.066406 102.160156 579.585938 C 101.4375 579.101562 100.742188 578.585938 100.074219 578.035156 C 99.402344 577.488281 98.761719 576.90625 98.148438 576.292969 C 97.535156 575.679688 96.953125 575.039062 96.40625 574.367188 C 95.855469 573.699219 95.339844 573.003906 94.855469 572.28125 C 94.375 571.5625 93.929688 570.820312 93.519531 570.054688 C 93.113281 569.289062 92.742188 568.507812 92.410156 567.707031 C 92.078125 566.90625 91.785156 566.09375 91.53125 565.261719 C 91.28125 564.433594 91.070312 563.59375 90.898438 562.742188 C 90.730469 561.894531 90.601562 561.039062 90.515625 560.175781 C 90.429688 559.3125 90.386719 558.449219 90.386719 557.582031 L 90.386719 195.78125 L 584.554688 195.78125 L 584.554688 557.582031 C 584.554688 558.449219 584.507812 559.3125 584.425781 560.175781 C 584.339844 561.039062 584.210938 561.894531 584.039062 562.746094 C 583.871094 563.59375 583.660156 564.433594 583.40625 565.261719 C 583.15625 566.09375 582.863281 566.90625 582.53125 567.707031 C 582.199219 568.507812 581.828125 569.289062 581.417969 570.054688 C 581.011719 570.820312 580.566406 571.5625 580.082031 572.28125 C 579.601562 573.003906 579.085938 573.699219 578.535156 574.367188 C 577.984375 575.039062 577.40625 575.679688 576.792969 576.292969 C 576.179688 576.90625 575.539062 577.488281 574.867188 578.035156 C 574.199219 578.585938 573.503906 579.101562 572.78125 579.585938 C 572.0625 580.066406 571.320312 580.511719 570.554688 580.921875 C 569.789062 581.328125 569.007812 581.699219 568.207031 582.03125 C 567.40625 582.363281 566.589844 582.65625 565.761719 582.910156 C 564.933594 583.160156 564.09375 583.371094 563.242188 583.542969 C 562.394531 583.710938 561.539062 583.839844 560.675781 583.925781 C 559.8125 584.011719 558.949219 584.054688 558.082031 584.054688 Z M 558.082031 584.054688 " fill-opacity="1" fill-rule="nonzero"/></g><path fill="#dc3832" d="M 143.332031 134.007812 C 143.332031 134.589844 143.277344 135.164062 143.164062 135.730469 C 143.050781 136.300781 142.882812 136.851562 142.660156 137.386719 C 142.4375 137.921875 142.167969 138.429688 141.84375 138.910156 C 141.523438 139.394531 141.15625 139.839844 140.75 140.25 C 140.339844 140.660156 139.894531 141.023438 139.410156 141.347656 C 138.929688 141.667969 138.421875 141.941406 137.886719 142.160156 C 137.351562 142.382812 136.796875 142.550781 136.230469 142.664062 C 135.660156 142.777344 135.085938 142.832031 134.507812 142.832031 C 133.929688 142.832031 133.355469 142.777344 132.785156 142.664062 C 132.21875 142.550781 131.667969 142.382812 131.132812 142.160156 C 130.597656 141.941406 130.085938 141.667969 129.605469 141.347656 C 129.125 141.023438 128.679688 140.660156 128.269531 140.25 C 127.859375 139.839844 127.492188 139.394531 127.171875 138.910156 C 126.847656 138.429688 126.578125 137.921875 126.355469 137.386719 C 126.132812 136.851562 125.964844 136.300781 125.851562 135.730469 C 125.742188 135.164062 125.683594 134.589844 125.683594 134.007812 C 125.683594 133.429688 125.742188 132.855469 125.851562 132.289062 C 125.964844 131.71875 126.132812 131.167969 126.355469 130.632812 C 126.578125 130.097656 126.847656 129.589844 127.171875 129.105469 C 127.492188 128.625 127.859375 128.179688 128.269531 127.769531 C 128.679688 127.359375 129.125 126.992188 129.605469 126.671875 C 130.085938 126.351562 130.597656 126.078125 131.132812 125.855469 C 131.667969 125.632812 132.21875 125.46875 132.785156 125.355469 C 133.355469 125.242188 133.929688 125.183594 134.507812 125.183594 C 135.085938 125.183594 135.660156 125.242188 136.230469 125.355469 C 136.796875 125.46875 137.351562 125.632812 137.886719 125.855469 C 138.421875 126.078125 138.929688 126.351562 139.410156 126.671875 C 139.894531 126.992188 140.339844 127.359375 140.75 127.769531 C 141.15625 128.179688 141.523438 128.625 141.84375 129.105469 C 142.167969 129.589844 142.4375 130.097656 142.660156 130.632812 C 142.882812 131.167969 143.050781 131.71875 143.164062 132.289062 C 143.277344 132.855469 143.332031 133.429688 143.332031 134.007812 Z M 143.332031 134.007812 " fill-opacity="1" fill-rule="nonzero"/><path fill="#dc3832" d="M 187.453125 134.007812 C 187.453125 134.589844 187.398438 135.164062 187.285156 135.730469 C 187.171875 136.300781 187.003906 136.851562 186.78125 137.386719 C 186.5625 137.921875 186.289062 138.429688 185.96875 138.910156 C 185.644531 139.394531 185.28125 139.839844 184.871094 140.25 C 184.460938 140.660156 184.015625 141.023438 183.53125 141.347656 C 183.050781 141.667969 182.542969 141.941406 182.007812 142.160156 C 181.472656 142.382812 180.921875 142.550781 180.351562 142.664062 C 179.785156 142.777344 179.210938 142.832031 178.628906 142.832031 C 178.050781 142.832031 177.476562 142.777344 176.910156 142.664062 C 176.339844 142.550781 175.789062 142.382812 175.253906 142.160156 C 174.71875 141.941406 174.210938 141.667969 173.726562 141.347656 C 173.246094 141.023438 172.800781 140.660156 172.390625 140.25 C 171.980469 139.839844 171.613281 139.394531 171.292969 138.910156 C 170.972656 138.429688 170.699219 137.921875 170.476562 137.386719 C 170.257812 136.851562 170.089844 136.300781 169.976562 135.730469 C 169.863281 135.164062 169.804688 134.589844 169.804688 134.007812 C 169.804688 133.429688 169.863281 132.855469 169.976562 132.289062 C 170.089844 131.71875 170.257812 131.167969 170.476562 130.632812 C 170.699219 130.097656 170.972656 129.589844 171.292969 129.105469 C 171.613281 128.625 171.980469 128.179688 172.390625 127.769531 C 172.800781 127.359375 173.246094 126.992188 173.726562 126.671875 C 174.210938 126.351562 174.71875 126.078125 175.253906 125.855469 C 175.789062 125.632812 176.339844 125.46875 176.910156 125.355469 C 177.476562 125.242188 178.050781 125.183594 178.628906 125.183594 C 179.210938 125.183594 179.785156 125.242188 180.351562 125.355469 C 180.921875 125.46875 181.472656 125.632812 182.007812 125.855469 C 182.542969 126.078125 183.050781 126.351562 183.53125 126.671875 C 184.015625 126.992188 184.460938 127.359375 184.871094 127.769531 C 185.28125 128.179688 185.644531 128.625 185.96875 129.105469 C 186.289062 129.589844 186.5625 130.097656 186.78125 130.632812 C 187.003906 131.167969 187.171875 131.71875 187.285156 132.289062 C 187.398438 132.855469 187.453125 133.429688 187.453125 134.007812 Z M 187.453125 134.007812 " fill-opacity="1" fill-rule="nonzero"/><path fill="#dc3832" d="M 231.578125 134.007812 C 231.578125 134.589844 231.519531 135.164062 231.40625 135.730469 C 231.292969 136.300781 231.128906 136.851562 230.90625 137.386719 C 230.683594 137.921875 230.410156 138.429688 230.089844 138.910156 C 229.769531 139.394531 229.402344 139.839844 228.992188 140.25 C 228.582031 140.660156 228.136719 141.023438 227.65625 141.347656 C 227.171875 141.667969 226.664062 141.941406 226.128906 142.160156 C 225.59375 142.382812 225.042969 142.550781 224.472656 142.664062 C 223.90625 142.777344 223.332031 142.832031 222.753906 142.832031 C 222.171875 142.832031 221.597656 142.777344 221.03125 142.664062 C 220.460938 142.550781 219.910156 142.382812 219.375 142.160156 C 218.839844 141.941406 218.332031 141.667969 217.851562 141.347656 C 217.367188 141.023438 216.921875 140.660156 216.511719 140.25 C 216.101562 139.839844 215.738281 139.394531 215.414062 138.910156 C 215.09375 138.429688 214.820312 137.921875 214.601562 137.386719 C 214.378906 136.851562 214.210938 136.300781 214.097656 135.730469 C 213.984375 135.164062 213.929688 134.589844 213.929688 134.007812 C 213.929688 133.429688 213.984375 132.855469 214.097656 132.289062 C 214.210938 131.71875 214.378906 131.167969 214.601562 130.632812 C 214.820312 130.097656 215.09375 129.589844 215.414062 129.105469 C 215.738281 128.625 216.101562 128.179688 216.511719 127.769531 C 216.921875 127.359375 217.367188 126.992188 217.851562 126.671875 C 218.332031 126.351562 218.839844 126.078125 219.375 125.855469 C 219.910156 125.632812 220.460938 125.46875 221.03125 125.355469 C 221.597656 125.242188 222.171875 125.183594 222.753906 125.183594 C 223.332031 125.183594 223.90625 125.242188 224.472656 125.355469 C 225.042969 125.46875 225.59375 125.632812 226.128906 125.855469 C 226.664062 126.078125 227.171875 126.351562 227.65625 126.671875 C 228.136719 126.992188 228.582031 127.359375 228.992188 127.769531 C 229.402344 128.179688 229.769531 128.625 230.089844 129.105469 C 230.410156 129.589844 230.683594 130.097656 230.90625 130.632812 C 231.128906 131.167969 231.292969 131.71875 231.40625 132.289062 C 231.519531 132.855469 231.578125 133.429688 231.578125 134.007812 Z M 231.578125 134.007812 " fill-opacity="1" fill-rule="nonzero"/><path fill="#dc3832" d="M 452.1875 142.832031 L 540.433594 142.832031 C 541.011719 142.832031 541.585938 142.777344 542.152344 142.664062 C 542.722656 142.550781 543.273438 142.382812 543.808594 142.160156 C 544.34375 141.941406 544.851562 141.667969 545.335938 141.347656 C 545.816406 141.023438 546.261719 140.660156 546.671875 140.25 C 547.082031 139.839844 547.445312 139.394531 547.769531 138.910156 C 548.089844 138.429688 548.363281 137.921875 548.585938 137.386719 C 548.804688 136.851562 548.972656 136.300781 549.085938 135.730469 C 549.199219 135.164062 549.257812 134.589844 549.257812 134.007812 C 549.257812 133.429688 549.199219 132.855469 549.085938 132.289062 C 548.972656 131.71875 548.804688 131.167969 548.585938 130.632812 C 548.363281 130.097656 548.089844 129.589844 547.769531 129.105469 C 547.445312 128.625 547.082031 128.179688 546.671875 127.769531 C 546.261719 127.359375 545.816406 126.992188 545.335938 126.671875 C 544.851562 126.351562 544.34375 126.078125 543.808594 125.855469 C 543.273438 125.632812 542.722656 125.46875 542.152344 125.355469 C 541.585938 125.242188 541.011719 125.183594 540.433594 125.183594 L 452.1875 125.183594 C 451.609375 125.183594 451.035156 125.242188 450.464844 125.355469 C 449.898438 125.46875 449.347656 125.632812 448.8125 125.855469 C 448.273438 126.078125 447.765625 126.351562 447.285156 126.671875 C 446.804688 126.992188 446.359375 127.359375 445.949219 127.769531 C 445.539062 128.179688 445.171875 128.625 444.851562 129.105469 C 444.527344 129.589844 444.257812 130.097656 444.035156 130.632812 C 443.8125 131.167969 443.644531 131.71875 443.53125 132.289062 C 443.417969 132.855469 443.363281 133.429688 443.363281 134.007812 C 443.363281 134.589844 443.417969 135.164062 443.53125 135.730469 C 443.644531 136.300781 443.8125 136.851562 444.035156 137.386719 C 444.257812 137.921875 444.527344 138.429688 444.851562 138.910156 C 445.171875 139.394531 445.539062 139.839844 445.949219 140.25 C 446.359375 140.660156 446.804688 141.023438 447.285156 141.347656 C 447.765625 141.667969 448.273438 141.941406 448.8125 142.160156 C 449.347656 142.382812 449.898438 142.550781 450.464844 142.664062 C 451.035156 142.777344 451.609375 142.832031 452.1875 142.832031 Z M 452.1875 142.832031 " fill-opacity="1" fill-rule="nonzero"/><path fill="#dc3832" d="M 513.957031 310.496094 L 494.78125 310.496094 C 464.863281 251.382812 403.800781 213.429688 337.46875 213.429688 C 271.140625 213.429688 210.074219 251.382812 180.15625 310.496094 L 160.980469 310.496094 C 159.535156 310.5 158.097656 310.570312 156.660156 310.714844 C 155.222656 310.859375 153.792969 311.070312 152.378906 311.355469 C 150.960938 311.636719 149.5625 311.988281 148.179688 312.410156 C 146.796875 312.828125 145.4375 313.316406 144.105469 313.871094 C 142.769531 314.421875 141.464844 315.042969 140.191406 315.722656 C 138.917969 316.402344 137.683594 317.148438 136.480469 317.949219 C 135.28125 318.753906 134.121094 319.613281 133.003906 320.527344 C 131.886719 321.445312 130.820312 322.414062 129.796875 323.4375 C 128.777344 324.457031 127.808594 325.527344 126.890625 326.644531 C 125.972656 327.757812 125.113281 328.917969 124.3125 330.117188 C 123.507812 331.320312 122.765625 332.558594 122.085938 333.832031 C 121.402344 335.105469 120.785156 336.410156 120.230469 337.742188 C 119.679688 339.078125 119.191406 340.433594 118.769531 341.816406 C 118.351562 343.199219 118 344.597656 117.714844 346.015625 C 117.433594 347.433594 117.21875 348.859375 117.078125 350.296875 C 116.933594 351.734375 116.859375 353.175781 116.859375 354.621094 L 116.859375 425.214844 C 116.859375 426.660156 116.933594 428.101562 117.078125 429.539062 C 117.21875 430.976562 117.433594 432.402344 117.714844 433.820312 C 118 435.234375 118.351562 436.636719 118.769531 438.015625 C 119.191406 439.398438 119.679688 440.757812 120.230469 442.09375 C 120.785156 443.425781 121.402344 444.730469 122.085938 446.003906 C 122.765625 447.277344 123.507812 448.515625 124.3125 449.714844 C 125.113281 450.917969 125.972656 452.074219 126.890625 453.191406 C 127.808594 454.308594 128.777344 455.378906 129.796875 456.398438 C 130.820312 457.421875 131.886719 458.390625 133.003906 459.304688 C 134.121094 460.222656 135.28125 461.082031 136.480469 461.886719 C 137.683594 462.6875 138.917969 463.429688 140.191406 464.113281 C 141.464844 464.792969 142.769531 465.410156 144.105469 465.964844 C 145.4375 466.519531 146.796875 467.003906 148.179688 467.425781 C 149.5625 467.847656 150.960938 468.199219 152.378906 468.480469 C 153.792969 468.765625 155.222656 468.976562 156.660156 469.121094 C 158.097656 469.261719 159.535156 469.335938 160.980469 469.335938 L 180.15625 469.335938 C 210.074219 528.449219 271.140625 566.40625 337.46875 566.40625 C 403.800781 566.40625 464.863281 528.449219 494.78125 469.335938 L 513.957031 469.335938 C 515.402344 469.335938 516.84375 469.261719 518.28125 469.121094 C 519.71875 468.976562 521.144531 468.765625 522.5625 468.480469 C 523.980469 468.199219 525.378906 467.847656 526.761719 467.425781 C 528.144531 467.003906 529.5 466.519531 530.835938 465.964844 C 532.167969 465.410156 533.472656 464.792969 534.746094 464.113281 C 536.019531 463.429688 537.257812 462.6875 538.460938 461.886719 C 539.660156 461.082031 540.820312 460.222656 541.9375 459.304688 C 543.050781 458.390625 544.121094 457.421875 545.140625 456.398438 C 546.164062 455.378906 547.132812 454.308594 548.050781 453.191406 C 548.964844 452.074219 549.824219 450.917969 550.628906 449.714844 C 551.433594 448.515625 552.175781 447.277344 552.855469 446.003906 C 553.539062 444.730469 554.15625 443.425781 554.707031 442.09375 C 555.261719 440.757812 555.75 439.398438 556.167969 438.015625 C 556.589844 436.636719 556.941406 435.234375 557.222656 433.820312 C 557.507812 432.402344 557.71875 430.976562 557.863281 429.539062 C 558.007812 428.101562 558.078125 426.660156 558.082031 425.214844 L 558.082031 354.621094 C 558.078125 353.175781 558.007812 351.734375 557.863281 350.296875 C 557.71875 348.859375 557.507812 347.433594 557.222656 346.015625 C 556.941406 344.597656 556.589844 343.199219 556.167969 341.816406 C 555.75 340.433594 555.261719 339.078125 554.707031 337.742188 C 554.15625 336.410156 553.539062 335.105469 552.855469 333.832031 C 552.175781 332.558594 551.433594 331.320312 550.628906 330.117188 C 549.824219 328.917969 548.964844 327.757812 548.050781 326.644531 C 547.132812 325.527344 546.164062 324.457031 545.140625 323.4375 C 544.121094 322.414062 543.050781 321.445312 541.933594 320.527344 C 540.820312 319.613281 539.660156 318.753906 538.460938 317.949219 C 537.257812 317.148438 536.019531 316.402344 534.746094 315.722656 C 533.472656 315.042969 532.167969 314.421875 530.835938 313.871094 C 529.5 313.316406 528.144531 312.828125 526.761719 312.410156 C 525.378906 311.988281 523.980469 311.636719 522.5625 311.355469 C 521.144531 311.070312 519.71875 310.859375 518.28125 310.714844 C 516.84375 310.570312 515.402344 310.5 513.957031 310.496094 Z M 474.765625 310.496094 L 424.191406 310.496094 C 421.78125 301.5 418.847656 292.675781 415.398438 284.023438 L 455.539062 284.023438 C 462.863281 292.183594 469.273438 301.007812 474.765625 310.496094 Z M 389.167969 239.925781 C 397.808594 242.941406 406.132812 246.664062 414.132812 251.105469 C 422.132812 255.546875 429.699219 260.636719 436.824219 266.375 L 407.164062 266.375 C 402.203125 256.851562 396.203125 248.035156 389.164062 239.925781 Z M 386.753906 266.375 L 346.292969 266.375 L 346.292969 232.203125 C 361.132812 235.671875 375.152344 247.734375 386.753906 266.375 Z M 328.644531 232.203125 L 328.644531 266.375 L 288.183594 266.375 C 299.789062 247.734375 313.808594 235.671875 328.644531 232.203125 Z M 267.773438 266.375 L 238.113281 266.375 C 245.242188 260.636719 252.808594 255.546875 260.808594 251.105469 C 268.8125 246.664062 277.132812 242.9375 285.773438 239.925781 C 278.734375 248.035156 272.734375 256.851562 267.773438 266.375 Z M 328.644531 284.023438 L 328.644531 310.496094 L 269.050781 310.496094 C 271.683594 301.449219 274.921875 292.625 278.769531 284.023438 Z M 346.292969 284.023438 L 396.171875 284.023438 C 400.019531 292.625 403.257812 301.449219 405.890625 310.496094 L 346.292969 310.496094 Z M 219.398438 284.023438 L 259.542969 284.023438 C 256.089844 292.675781 253.160156 301.5 250.75 310.496094 L 200.175781 310.496094 C 205.667969 301.007812 212.074219 292.183594 219.398438 284.023438 Z M 200.175781 469.335938 L 250.75 469.335938 C 253.160156 478.335938 256.089844 487.160156 259.542969 495.8125 L 219.398438 495.8125 C 212.074219 487.652344 205.667969 478.824219 200.175781 469.335938 Z M 285.769531 539.90625 C 277.128906 536.894531 268.808594 533.167969 260.808594 528.730469 C 252.808594 524.289062 245.242188 519.199219 238.113281 513.460938 L 267.773438 513.460938 C 272.734375 522.984375 278.734375 531.796875 285.773438 539.90625 Z M 288.183594 513.460938 L 328.644531 513.460938 L 328.644531 547.632812 C 313.808594 544.160156 299.789062 532.101562 288.183594 513.460938 Z M 346.292969 547.632812 L 346.292969 513.460938 L 386.753906 513.460938 C 375.152344 532.101562 361.132812 544.160156 346.292969 547.632812 Z M 407.164062 513.460938 L 436.824219 513.460938 C 429.699219 519.199219 422.132812 524.289062 414.128906 528.730469 C 406.128906 533.167969 397.808594 536.894531 389.164062 539.90625 C 396.203125 531.796875 402.203125 522.984375 407.164062 513.460938 Z M 346.292969 495.8125 L 346.292969 469.335938 L 405.890625 469.335938 C 403.257812 478.386719 400.019531 487.210938 396.171875 495.8125 Z M 328.644531 495.8125 L 278.769531 495.8125 C 274.921875 487.210938 271.683594 478.386719 269.050781 469.335938 L 328.644531 469.335938 Z M 455.539062 495.8125 L 415.398438 495.8125 C 418.847656 487.160156 421.78125 478.335938 424.191406 469.335938 L 474.765625 469.335938 C 469.273438 478.824219 462.863281 487.652344 455.539062 495.8125 Z M 540.433594 425.214844 C 540.429688 426.082031 540.386719 426.945312 540.300781 427.808594 C 540.214844 428.671875 540.089844 429.527344 539.917969 430.378906 C 539.75 431.226562 539.539062 432.066406 539.285156 432.898438 C 539.03125 433.726562 538.742188 434.539062 538.410156 435.339844 C 538.078125 436.140625 537.707031 436.925781 537.296875 437.6875 C 536.886719 438.453125 536.441406 439.195312 535.960938 439.914062 C 535.480469 440.636719 534.964844 441.332031 534.414062 442 C 533.863281 442.671875 533.28125 443.3125 532.667969 443.925781 C 532.054688 444.539062 531.414062 445.121094 530.746094 445.671875 C 530.074219 446.21875 529.378906 446.734375 528.660156 447.21875 C 527.9375 447.699219 527.195312 448.144531 526.433594 448.554688 C 525.667969 448.960938 524.886719 449.332031 524.085938 449.664062 C 523.285156 449.996094 522.46875 450.289062 521.640625 450.542969 C 520.8125 450.792969 519.972656 451.003906 519.121094 451.175781 C 518.269531 451.34375 517.414062 451.472656 516.550781 451.558594 C 515.691406 451.644531 514.824219 451.6875 513.957031 451.6875 L 160.980469 451.6875 C 160.113281 451.6875 159.25 451.644531 158.386719 451.558594 C 157.523438 451.472656 156.667969 451.34375 155.820312 451.175781 C 154.96875 451.003906 154.128906 450.792969 153.300781 450.542969 C 152.472656 450.289062 151.65625 449.996094 150.855469 449.664062 C 150.054688 449.332031 149.273438 448.960938 148.507812 448.554688 C 147.742188 448.144531 147 447.699219 146.28125 447.21875 C 145.558594 446.734375 144.863281 446.21875 144.195312 445.671875 C 143.523438 445.121094 142.882812 444.539062 142.269531 443.925781 C 141.65625 443.3125 141.078125 442.671875 140.527344 442 C 139.976562 441.332031 139.460938 440.636719 138.980469 439.914062 C 138.496094 439.195312 138.050781 438.453125 137.644531 437.6875 C 137.234375 436.925781 136.863281 436.140625 136.53125 435.339844 C 136.199219 434.539062 135.90625 433.726562 135.65625 432.898438 C 135.402344 432.066406 135.191406 431.226562 135.023438 430.378906 C 134.851562 429.527344 134.722656 428.671875 134.636719 427.808594 C 134.550781 426.945312 134.507812 426.082031 134.507812 425.214844 L 134.507812 354.621094 C 134.507812 353.753906 134.550781 352.886719 134.636719 352.027344 C 134.722656 351.164062 134.851562 350.308594 135.023438 349.457031 C 135.191406 348.605469 135.402344 347.765625 135.65625 346.9375 C 135.90625 346.109375 136.199219 345.292969 136.53125 344.492188 C 136.863281 343.691406 137.234375 342.910156 137.644531 342.144531 C 138.050781 341.382812 138.496094 340.640625 138.980469 339.917969 C 139.460938 339.199219 139.976562 338.503906 140.527344 337.832031 C 141.078125 337.164062 141.65625 336.523438 142.269531 335.910156 C 142.882812 335.296875 143.523438 334.714844 144.195312 334.164062 C 144.863281 333.613281 145.558594 333.097656 146.28125 332.617188 C 147 332.136719 147.742188 331.691406 148.507812 331.28125 C 149.273438 330.871094 150.054688 330.5 150.855469 330.167969 C 151.65625 329.835938 152.472656 329.546875 153.300781 329.292969 C 154.128906 329.039062 154.96875 328.828125 155.820312 328.660156 C 156.667969 328.488281 157.523438 328.363281 158.386719 328.277344 C 159.25 328.191406 160.113281 328.148438 160.980469 328.144531 L 513.957031 328.144531 C 514.824219 328.148438 515.691406 328.191406 516.550781 328.277344 C 517.414062 328.363281 518.269531 328.492188 519.121094 328.660156 C 519.972656 328.828125 520.8125 329.039062 521.640625 329.292969 C 522.46875 329.546875 523.285156 329.835938 524.085938 330.167969 C 524.886719 330.5 525.667969 330.871094 526.433594 331.28125 C 527.195312 331.691406 527.9375 332.136719 528.660156 332.617188 C 529.378906 333.097656 530.074219 333.613281 530.746094 334.164062 C 531.414062 334.714844 532.054688 335.296875 532.667969 335.910156 C 533.28125 336.523438 533.863281 337.164062 534.414062 337.832031 C 534.964844 338.503906 535.480469 339.199219 535.960938 339.917969 C 536.441406 340.640625 536.886719 341.382812 537.296875 342.144531 C 537.707031 342.910156 538.078125 343.691406 538.410156 344.492188 C 538.742188 345.292969 539.03125 346.109375 539.285156 346.9375 C 539.539062 347.765625 539.75 348.605469 539.917969 349.457031 C 540.089844 350.308594 540.214844 351.164062 540.300781 352.027344 C 540.386719 352.886719 540.429688 353.753906 540.433594 354.621094 Z M 540.433594 425.214844 " fill-opacity="1" fill-rule="nonzero"/><path fill="#dc3832" d="M 259.023438 341.433594 C 258.449219 341.378906 257.875 341.375 257.300781 341.429688 C 256.722656 341.484375 256.160156 341.59375 255.605469 341.757812 C 255.050781 341.921875 254.519531 342.136719 254.007812 342.40625 C 253.492188 342.671875 253.011719 342.984375 252.5625 343.347656 C 252.109375 343.707031 251.699219 344.109375 251.324219 344.550781 C 250.953125 344.992188 250.625 345.464844 250.34375 345.96875 C 250.0625 346.472656 249.832031 347 249.652344 347.550781 C 249.472656 348.097656 249.347656 348.660156 249.277344 349.234375 L 243.511719 401.167969 L 230.464844 377.695312 C 227.363281 372.09375 218.140625 372.09375 215.039062 377.695312 L 201.992188 401.167969 L 196.226562 349.238281 C 196.164062 348.664062 196.042969 348.097656 195.867188 347.546875 C 195.691406 346.996094 195.464844 346.464844 195.1875 345.957031 C 194.90625 345.449219 194.578125 344.976562 194.207031 344.53125 C 193.832031 344.089844 193.421875 343.6875 192.96875 343.324219 C 192.515625 342.964844 192.03125 342.648438 191.519531 342.382812 C 191.003906 342.117188 190.46875 341.902344 189.910156 341.742188 C 189.355469 341.578125 188.789062 341.472656 188.210938 341.425781 C 187.632812 341.375 187.058594 341.382812 186.480469 341.445312 C 185.90625 341.507812 185.339844 341.628906 184.789062 341.804688 C 184.238281 341.980469 183.707031 342.207031 183.199219 342.484375 C 182.691406 342.765625 182.214844 343.089844 181.773438 343.464844 C 181.328125 343.835938 180.925781 344.25 180.566406 344.703125 C 180.203125 345.152344 179.886719 345.636719 179.621094 346.152344 C 179.355469 346.664062 179.140625 347.199219 178.980469 347.757812 C 178.816406 348.3125 178.710938 348.878906 178.660156 349.457031 C 178.613281 350.035156 178.617188 350.609375 178.683594 351.1875 L 187.507812 430.605469 C 187.609375 431.535156 187.855469 432.429688 188.242188 433.28125 C 188.628906 434.132812 189.136719 434.902344 189.769531 435.59375 C 190.402344 436.285156 191.125 436.859375 191.941406 437.316406 C 192.757812 437.777344 193.621094 438.101562 194.539062 438.285156 C 195.457031 438.46875 196.382812 438.503906 197.3125 438.394531 C 198.238281 438.285156 199.128906 438.035156 199.980469 437.640625 C 200.828125 437.25 201.597656 436.734375 202.28125 436.097656 C 202.96875 435.460938 203.539062 434.734375 203.992188 433.917969 L 222.753906 400.144531 L 241.511719 433.910156 C 241.96875 434.730469 242.539062 435.457031 243.222656 436.09375 C 243.910156 436.730469 244.675781 437.246094 245.527344 437.636719 C 246.375 438.03125 247.265625 438.28125 248.195312 438.390625 C 249.125 438.5 250.046875 438.460938 250.964844 438.277344 C 251.882812 438.09375 252.75 437.773438 253.5625 437.3125 C 254.378906 436.851562 255.101562 436.277344 255.734375 435.585938 C 256.367188 434.898438 256.875 434.125 257.261719 433.273438 C 257.648438 432.421875 257.894531 431.53125 258 430.601562 L 266.824219 351.179688 C 266.886719 350.605469 266.894531 350.027344 266.84375 349.453125 C 266.792969 348.875 266.6875 348.308594 266.527344 347.75 C 266.363281 347.195312 266.148438 346.660156 265.882812 346.144531 C 265.617188 345.628906 265.300781 345.148438 264.941406 344.695312 C 264.578125 344.242188 264.175781 343.828125 263.730469 343.457031 C 263.289062 343.082031 262.8125 342.757812 262.304688 342.476562 C 261.796875 342.199219 261.269531 341.96875 260.714844 341.792969 C 260.164062 341.621094 259.601562 341.5 259.023438 341.433594 Z M 259.023438 341.433594 " fill-opacity="1" fill-rule="nonzero"/><path fill="#dc3832" d="M 373.742188 341.433594 C 373.167969 341.375 372.589844 341.375 372.015625 341.425781 C 371.441406 341.480469 370.875 341.589844 370.320312 341.753906 C 369.765625 341.914062 369.230469 342.132812 368.71875 342.398438 C 368.207031 342.664062 367.726562 342.980469 367.273438 343.339844 C 366.824219 343.703125 366.410156 344.101562 366.035156 344.546875 C 365.664062 344.988281 365.335938 345.460938 365.054688 345.964844 C 364.773438 346.46875 364.542969 346.996094 364.367188 347.546875 C 364.1875 348.097656 364.0625 348.660156 363.996094 349.234375 L 358.230469 401.167969 L 345.183594 377.695312 C 342.082031 372.09375 332.859375 372.09375 329.757812 377.695312 L 316.710938 401.167969 L 310.945312 349.238281 C 310.882812 348.664062 310.761719 348.097656 310.585938 347.546875 C 310.410156 346.992188 310.183594 346.464844 309.90625 345.957031 C 309.625 345.449219 309.296875 344.972656 308.925781 344.53125 C 308.550781 344.085938 308.140625 343.683594 307.6875 343.320312 C 307.234375 342.960938 306.75 342.644531 306.234375 342.378906 C 305.722656 342.109375 305.1875 341.898438 304.628906 341.734375 C 304.074219 341.574219 303.507812 341.46875 302.929688 341.417969 C 302.351562 341.371094 301.773438 341.375 301.199219 341.441406 C 300.621094 341.503906 300.058594 341.625 299.503906 341.800781 C 298.953125 341.972656 298.421875 342.203125 297.914062 342.480469 C 297.40625 342.761719 296.933594 343.085938 296.488281 343.460938 C 296.046875 343.832031 295.640625 344.246094 295.28125 344.699219 C 294.917969 345.152344 294.605469 345.632812 294.335938 346.148438 C 294.070312 346.664062 293.855469 347.199219 293.695312 347.753906 C 293.535156 348.3125 293.429688 348.878906 293.378906 349.457031 C 293.328125 350.035156 293.335938 350.609375 293.398438 351.1875 L 302.222656 430.605469 C 302.328125 431.535156 302.574219 432.429688 302.960938 433.28125 C 303.347656 434.132812 303.855469 434.902344 304.488281 435.59375 C 305.121094 436.285156 305.84375 436.859375 306.660156 437.316406 C 307.472656 437.777344 308.339844 438.097656 309.257812 438.285156 C 310.175781 438.46875 311.097656 438.503906 312.027344 438.394531 C 312.957031 438.285156 313.847656 438.035156 314.695312 437.640625 C 315.546875 437.25 316.3125 436.734375 317 436.097656 C 317.683594 435.460938 318.253906 434.734375 318.710938 433.917969 L 337.46875 400.144531 L 356.230469 433.910156 C 356.683594 434.730469 357.253906 435.457031 357.941406 436.09375 C 358.625 436.730469 359.394531 437.246094 360.242188 437.636719 C 361.09375 438.03125 361.984375 438.28125 362.910156 438.390625 C 363.839844 438.5 364.765625 438.460938 365.683594 438.277344 C 366.601562 438.09375 367.464844 437.773438 368.28125 437.3125 C 369.097656 436.851562 369.820312 436.277344 370.453125 435.585938 C 371.085938 434.898438 371.59375 434.125 371.980469 433.273438 C 372.367188 432.421875 372.613281 431.53125 372.714844 430.601562 L 381.539062 351.179688 C 381.605469 350.605469 381.609375 350.027344 381.558594 349.453125 C 381.511719 348.875 381.40625 348.308594 381.242188 347.75 C 381.082031 347.195312 380.867188 346.660156 380.601562 346.144531 C 380.332031 345.632812 380.019531 345.148438 379.65625 344.695312 C 379.296875 344.242188 378.890625 343.828125 378.449219 343.457031 C 378.007812 343.082031 377.53125 342.757812 377.023438 342.476562 C 376.515625 342.199219 375.984375 341.96875 375.433594 341.792969 C 374.882812 341.621094 374.316406 341.5 373.742188 341.433594 Z M 373.742188 341.433594 " fill-opacity="1" fill-rule="nonzero"/><path fill="#dc3832" d="M 488.460938 341.433594 C 487.882812 341.378906 487.308594 341.375 486.734375 341.429688 C 486.160156 341.484375 485.59375 341.59375 485.039062 341.757812 C 484.484375 341.921875 483.953125 342.136719 483.441406 342.40625 C 482.929688 342.671875 482.449219 342.984375 481.996094 343.347656 C 481.546875 343.707031 481.132812 344.109375 480.757812 344.550781 C 480.386719 344.992188 480.058594 345.464844 479.777344 345.96875 C 479.496094 346.472656 479.265625 347 479.085938 347.550781 C 478.90625 348.097656 478.78125 348.660156 478.710938 349.234375 L 472.945312 401.167969 L 459.898438 377.695312 C 456.796875 372.09375 447.578125 372.09375 444.476562 377.695312 L 431.429688 401.167969 L 425.664062 349.238281 C 425.597656 348.664062 425.476562 348.097656 425.304688 347.546875 C 425.128906 346.996094 424.898438 346.464844 424.621094 345.957031 C 424.339844 345.449219 424.015625 344.976562 423.640625 344.53125 C 423.269531 344.089844 422.855469 343.6875 422.402344 343.324219 C 421.949219 342.964844 421.46875 342.648438 420.953125 342.382812 C 420.4375 342.117188 419.902344 341.902344 419.347656 341.742188 C 418.789062 341.578125 418.222656 341.472656 417.644531 341.425781 C 417.070312 341.375 416.492188 341.382812 415.917969 341.445312 C 415.339844 341.507812 414.777344 341.628906 414.222656 341.804688 C 413.671875 341.980469 413.140625 342.207031 412.632812 342.484375 C 412.128906 342.765625 411.652344 343.089844 411.207031 343.464844 C 410.765625 343.835938 410.363281 344.25 410 344.703125 C 409.636719 345.152344 409.324219 345.636719 409.058594 346.152344 C 408.789062 346.664062 408.574219 347.199219 408.414062 347.757812 C 408.253906 348.3125 408.148438 348.878906 408.097656 349.457031 C 408.046875 350.035156 408.054688 350.609375 408.117188 351.1875 L 416.941406 430.605469 C 417.046875 431.535156 417.289062 432.429688 417.675781 433.28125 C 418.0625 434.132812 418.574219 434.902344 419.207031 435.59375 C 419.839844 436.285156 420.5625 436.859375 421.375 437.316406 C 422.191406 437.777344 423.058594 438.101562 423.976562 438.285156 C 424.894531 438.46875 425.816406 438.503906 426.746094 438.394531 C 427.675781 438.285156 428.566406 438.035156 429.414062 437.640625 C 430.261719 437.25 431.03125 436.734375 431.71875 436.097656 C 432.402344 435.460938 432.972656 434.734375 433.425781 433.917969 L 452.1875 400.144531 L 470.949219 433.910156 C 471.402344 434.730469 471.972656 435.457031 472.660156 436.09375 C 473.34375 436.730469 474.113281 437.246094 474.960938 437.636719 C 475.8125 438.03125 476.699219 438.28125 477.628906 438.390625 C 478.558594 438.5 479.480469 438.460938 480.398438 438.277344 C 481.316406 438.09375 482.183594 437.773438 483 437.3125 C 483.8125 436.851562 484.539062 436.277344 485.167969 435.585938 C 485.800781 434.898438 486.3125 434.125 486.699219 433.273438 C 487.085938 432.421875 487.332031 431.53125 487.433594 430.601562 L 496.257812 351.179688 C 496.320312 350.605469 496.328125 350.027344 496.277344 349.453125 C 496.226562 348.875 496.121094 348.308594 495.960938 347.75 C 495.800781 347.195312 495.585938 346.660156 495.316406 346.144531 C 495.050781 345.632812 494.738281 345.148438 494.375 344.695312 C 494.011719 344.242188 493.609375 343.828125 493.167969 343.457031 C 492.722656 343.082031 492.25 342.757812 491.742188 342.476562 C 491.234375 342.199219 490.703125 341.96875 490.152344 341.792969 C 489.597656 341.621094 489.035156 341.5 488.460938 341.433594 Z M 488.460938 341.433594 " fill-opacity="1" fill-rule="nonzero"/></svg>