<svg xmlns="http://www.w3.org/2000/svg" xmlns:xlink="http://www.w3.org/1999/xlink" width="900" zoomAndPan="magnify" viewBox="0 0 675 675.000002" height="900" preserveAspectRatio="xMidYMid meet" version="1.0"><defs><clipPath id="e0d285fc61"><path d="M 67.898438 67.398438 L 607.101562 67.398438 L 607.101562 606.601562 L 67.898438 606.601562 Z M 67.898438 67.398438 " clip-rule="nonzero"/></clipPath></defs><g clip-path="url(#e0d285fc61)"><path fill="#dc3832" d="M 331.121094 165.1875 C 310.011719 147.425781 283.183594 137.644531 255.566406 137.644531 C 190.820312 137.644531 138.144531 190.320312 138.144531 255.070312 C 138.144531 319.820312 190.820312 372.492188 255.566406 372.492188 C 283.179688 372.492188 310.011719 362.714844 331.117188 344.953125 C 335.574219 341.210938 342.21875 341.78125 345.957031 346.226562 C 349.703125 350.679688 349.136719 357.324219 344.679688 361.066406 C 319.785156 382.019531 288.140625 393.554688 255.566406 393.554688 C 179.207031 393.554688 117.082031 331.429688 117.082031 255.070312 C 117.082031 178.707031 179.207031 116.582031 255.566406 116.582031 C 288.140625 116.582031 319.785156 128.121094 344.679688 149.070312 C 349.136719 152.816406 349.703125 159.457031 345.957031 163.914062 C 342.21875 168.359375 335.574219 168.929688 331.121094 165.1875 Z M 582.5 555.25 L 555.75 581.996094 C 550.992188 586.75 543.261719 586.75 538.511719 581.996094 L 415.589844 459.082031 C 410.84375 454.328125 410.84375 446.597656 415.589844 441.84375 L 442.335938 415.089844 C 444.722656 412.714844 447.835938 411.53125 450.953125 411.53125 C 454.082031 411.53125 457.199219 412.714844 459.582031 415.089844 L 582.5 538.015625 C 584.785156 540.296875 586.039062 543.359375 586.039062 546.632812 C 586.039062 549.902344 584.785156 552.964844 582.5 555.25 Z M 397.941406 377.332031 C 391.726562 384.585938 384.996094 391.300781 377.835938 397.449219 L 404.015625 423.628906 L 424.132812 403.515625 Z M 597.390625 523.125 L 474.46875 400.195312 C 465.710938 391.441406 453.25 388.605469 442.089844 391.683594 L 410.84375 360.445312 C 411.210938 359.910156 411.585938 359.382812 411.945312 358.839844 C 415.167969 353.996094 413.851562 347.460938 409.007812 344.238281 C 404.164062 341.019531 397.621094 342.332031 394.398438 347.179688 C 363.386719 393.828125 311.488281 421.671875 255.566406 421.671875 C 163.703125 421.671875 88.964844 346.9375 88.964844 255.070312 C 88.964844 163.199219 163.703125 88.460938 255.566406 88.460938 C 311.488281 88.460938 363.394531 116.3125 394.398438 162.957031 C 397.621094 167.800781 404.164062 169.117188 409.007812 165.898438 C 413.851562 162.679688 415.167969 156.144531 411.945312 151.300781 C 377.011719 98.765625 318.554688 67.40625 255.566406 67.40625 C 152.089844 67.40625 67.902344 151.589844 67.902344 255.070312 C 67.902344 358.546875 152.089844 442.734375 255.566406 442.734375 C 293.78125 442.734375 330.320312 431.175781 360.960938 410.363281 L 392.179688 441.582031 C 389.101562 452.75 391.933594 465.214844 400.699219 473.972656 L 523.621094 596.894531 C 530.097656 603.378906 538.617188 606.617188 547.125 606.617188 C 555.644531 606.617188 564.15625 603.371094 570.644531 596.894531 L 597.390625 570.144531 C 603.660156 563.882812 607.101562 555.53125 607.101562 546.632812 C 607.101562 537.734375 603.660156 529.382812 597.390625 523.125 Z M 280.992188 287.320312 C 280.992188 298.929688 273.808594 308.738281 265.296875 308.738281 L 241.769531 308.738281 C 238.125 308.738281 234.652344 304.464844 233.871094 299 C 233.042969 293.242188 227.703125 289.253906 221.9375 290.078125 C 216.191406 290.910156 212.1875 296.25 213.023438 302.007812 C 215.335938 318.113281 227.4375 329.804688 241.769531 329.804688 L 265.296875 329.804688 C 285.5625 329.804688 302.046875 310.746094 302.046875 287.320312 C 302.046875 263.898438 285.5625 244.84375 265.296875 244.84375 L 249.386719 244.84375 C 240.875 244.84375 233.691406 235.035156 233.691406 223.425781 C 233.691406 211.816406 240.875 202.003906 249.386719 202.003906 L 272.914062 202.003906 C 276.195312 202.003906 279.410156 205.511719 280.546875 210.347656 C 281.882812 216.003906 287.546875 219.511719 293.214844 218.179688 C 298.882812 216.84375 302.386719 211.175781 301.050781 205.511719 C 297.636719 191.046875 286.0625 180.941406 272.914062 180.941406 L 249.386719 180.941406 C 229.121094 180.941406 212.628906 200 212.628906 223.425781 C 212.628906 246.847656 229.121094 265.90625 249.386719 265.90625 L 265.296875 265.90625 C 273.808594 265.90625 280.992188 275.710938 280.992188 287.320312 Z M 353.078125 202.003906 L 401.984375 202.003906 C 407.796875 202.003906 412.515625 197.292969 412.515625 191.472656 C 412.515625 185.65625 407.796875 180.941406 401.984375 180.941406 L 342.546875 180.941406 C 336.734375 180.941406 332.015625 185.65625 332.015625 191.472656 L 332.015625 319.269531 C 332.015625 325.085938 336.734375 329.804688 342.546875 329.804688 L 401.984375 329.804688 C 407.796875 329.804688 412.515625 325.085938 412.515625 319.269531 C 412.515625 313.457031 407.796875 308.738281 401.984375 308.738281 L 353.078125 308.738281 L 353.078125 265.90625 L 383.96875 265.90625 C 389.78125 265.90625 394.496094 261.191406 394.496094 255.375 C 394.496094 249.558594 389.78125 244.84375 383.96875 244.84375 L 353.078125 244.84375 Z M 458.273438 202.753906 C 458.273438 202.035156 458.90625 201.398438 459.628906 201.398438 L 504.199219 201.398438 C 504.925781 201.398438 505.558594 202.035156 505.558594 202.753906 L 505.558594 306.773438 C 505.558594 307.5 504.925781 308.132812 504.199219 308.132812 L 459.628906 308.132812 C 458.90625 308.132812 458.273438 307.5 458.273438 306.773438 Z M 459.628906 329.195312 C 447.265625 329.195312 437.210938 319.140625 437.210938 306.773438 L 437.210938 202.757812 C 437.210938 190.398438 447.265625 180.335938 459.628906 180.335938 L 504.199219 180.335938 C 516.566406 180.335938 526.621094 190.398438 526.621094 202.757812 L 526.621094 306.773438 C 526.621094 319.140625 516.566406 329.195312 504.199219 329.195312 Z M 459.628906 329.195312 " fill-opacity="1" fill-rule="evenodd"/></g></svg>