<svg xmlns="http://www.w3.org/2000/svg" xmlns:xlink="http://www.w3.org/1999/xlink" width="900" zoomAndPan="magnify" viewBox="0 0 675 675.000002" height="900" preserveAspectRatio="xMidYMid meet" version="1.0"><defs><clipPath id="ea59f91d83"><path d="M 129 81.8125 L 545 81.8125 L 545 381 L 129 381 Z M 129 81.8125 " clip-rule="nonzero"/></clipPath><clipPath id="6353198b08"><path d="M 213 538 L 462 538 L 462 592.558594 L 213 592.558594 Z M 213 538 " clip-rule="nonzero"/></clipPath><clipPath id="ed4f24b500"><path d="M 56.171875 432 L 618.589844 432 L 618.589844 446 L 56.171875 446 Z M 56.171875 432 " clip-rule="nonzero"/></clipPath><clipPath id="6b4dd8d13e"><path d="M 56.171875 180 L 618.589844 180 L 618.589844 490 L 56.171875 490 Z M 56.171875 180 " clip-rule="nonzero"/></clipPath></defs><path fill="#dc3832" d="M 427.996094 117.664062 L 416.269531 117.664062 C 412.710938 117.664062 409.832031 114.777344 409.832031 111.21875 C 409.832031 107.660156 412.710938 104.773438 416.269531 104.773438 L 427.996094 104.773438 C 431.550781 104.773438 434.433594 107.660156 434.433594 111.21875 C 434.433594 114.777344 431.554688 117.664062 427.996094 117.664062 Z M 427.996094 117.664062 " fill-opacity="1" fill-rule="evenodd"/><path fill="#dc3832" d="M 465.871094 117.664062 L 454.144531 117.664062 C 450.589844 117.664062 447.707031 114.777344 447.707031 111.21875 C 447.707031 107.660156 450.589844 104.773438 454.144531 104.773438 L 465.871094 104.773438 C 469.429688 104.773438 472.3125 107.660156 472.3125 111.21875 C 472.3125 114.777344 469.429688 117.664062 465.871094 117.664062 Z M 465.871094 117.664062 " fill-opacity="1" fill-rule="evenodd"/><path fill="#dc3832" d="M 503.734375 117.664062 L 492.007812 117.664062 C 488.449219 117.664062 485.570312 114.777344 485.570312 111.21875 C 485.570312 107.660156 488.449219 104.773438 492.007812 104.773438 L 503.734375 104.773438 C 507.292969 104.773438 510.1875 107.660156 510.1875 111.21875 C 510.1875 114.777344 507.292969 117.664062 503.734375 117.664062 Z M 503.734375 117.664062 " fill-opacity="1" fill-rule="evenodd"/><path fill="#dc3832" d="M 538.449219 214.128906 L 136.324219 214.128906 C 132.769531 214.128906 129.886719 211.242188 129.886719 207.683594 C 129.886719 204.121094 132.769531 201.238281 136.324219 201.238281 L 538.449219 201.238281 C 542.003906 201.238281 544.886719 204.121094 544.886719 207.683594 C 544.886719 211.242188 541.992188 214.128906 538.449219 214.128906 Z M 538.449219 214.128906 " fill-opacity="1" fill-rule="evenodd"/><path fill="#dc3832" d="M 149.378906 214.128906 C 147.109375 214.128906 144.917969 212.925781 143.730469 210.808594 C 142.011719 207.695312 143.132812 203.761719 146.253906 202.039062 L 227.792969 156.898438 C 229.734375 155.824219 232.089844 155.824219 234.027344 156.898438 L 315.582031 202.039062 C 318.691406 203.765625 319.828125 207.695312 318.105469 210.808594 C 316.382812 213.921875 312.46875 215.046875 309.359375 213.320312 L 230.933594 169.902344 L 152.503906 213.320312 C 151.496094 213.871094 150.425781 214.140625 149.378906 214.128906 Z M 149.378906 214.128906 " fill-opacity="1" fill-rule="evenodd"/><path fill="#dc3832" d="M 464.816406 169.953125 L 375.664062 169.953125 C 372.109375 169.953125 369.226562 167.070312 369.226562 163.507812 C 369.226562 159.949219 372.109375 157.066406 375.664062 157.066406 L 464.816406 157.066406 C 468.371094 157.066406 471.253906 159.949219 471.253906 163.507812 C 471.253906 167.070312 468.371094 169.953125 464.816406 169.953125 Z M 464.816406 169.953125 " fill-opacity="1" fill-rule="evenodd"/><path fill="#dc3832" d="M 202.222656 325.996094 L 271.484375 325.996094 L 271.484375 255.328125 L 202.222656 255.328125 Z M 277.921875 338.886719 L 195.78125 338.886719 C 192.226562 338.886719 189.34375 336 189.34375 332.441406 L 189.34375 248.882812 C 189.34375 245.320312 192.226562 242.4375 195.78125 242.4375 L 277.921875 242.4375 C 281.476562 242.4375 284.359375 245.320312 284.359375 248.882812 L 284.359375 332.441406 C 284.359375 336 281.480469 338.886719 277.921875 338.886719 Z M 277.921875 338.886719 " fill-opacity="1" fill-rule="evenodd"/><path fill="#dc3832" d="M 337.378906 380.074219 C 333.824219 380.074219 330.941406 377.1875 330.941406 373.628906 L 330.941406 207.683594 C 330.941406 204.121094 333.824219 201.238281 337.378906 201.238281 C 340.9375 201.238281 343.816406 204.121094 343.816406 207.683594 L 343.816406 373.617188 C 343.816406 377.175781 340.9375 380.074219 337.378906 380.074219 Z M 337.378906 380.074219 " fill-opacity="1" fill-rule="evenodd"/><path fill="#dc3832" d="M 507.101562 322.078125 L 369.148438 322.078125 C 365.59375 322.078125 362.710938 319.195312 362.710938 315.632812 C 362.710938 312.074219 365.59375 309.1875 369.148438 309.1875 L 507.101562 309.1875 C 510.65625 309.1875 513.539062 312.074219 513.539062 315.632812 C 513.539062 319.195312 510.644531 322.078125 507.101562 322.078125 Z M 507.101562 322.078125 " fill-opacity="1" fill-rule="evenodd"/><path fill="#dc3832" d="M 373.867188 280.96875 L 501.9375 280.96875 L 501.9375 243.917969 L 373.867188 243.917969 Z M 508.375 293.859375 L 367.429688 293.859375 C 363.871094 293.859375 360.992188 290.972656 360.992188 287.414062 L 360.992188 237.472656 C 360.992188 233.910156 363.871094 231.027344 367.429688 231.027344 L 508.375 231.027344 C 511.945312 231.027344 514.8125 233.910156 514.8125 237.472656 L 514.8125 287.414062 C 514.824219 290.972656 511.945312 293.859375 508.375 293.859375 Z M 508.375 293.859375 " fill-opacity="1" fill-rule="evenodd"/><path fill="#dc3832" d="M 507.101562 350.296875 L 369.148438 350.296875 C 365.59375 350.296875 362.710938 347.410156 362.710938 343.851562 C 362.710938 340.289062 365.59375 337.40625 369.148438 337.40625 L 507.101562 337.40625 C 510.65625 337.40625 513.539062 340.289062 513.539062 343.851562 C 513.539062 347.398438 510.644531 350.296875 507.101562 350.296875 Z M 507.101562 350.296875 " fill-opacity="1" fill-rule="evenodd"/><g clip-path="url(#ea59f91d83)"><path fill="#dc3832" d="M 151.191406 94.753906 C 146.535156 94.753906 142.765625 98.542969 142.765625 103.1875 L 142.765625 358.730469 C 142.765625 363.390625 146.550781 367.167969 151.191406 367.167969 L 523.574219 367.167969 C 528.210938 367.167969 532 363.390625 532 358.730469 L 532 103.1875 C 532 98.542969 528.210938 94.753906 523.574219 94.753906 Z M 523.574219 380.074219 L 151.191406 380.074219 C 139.4375 380.074219 129.875 370.5 129.875 358.734375 L 129.875 103.1875 C 129.875 91.421875 139.4375 81.863281 151.175781 81.863281 L 523.558594 81.863281 C 535.3125 81.863281 544.863281 91.433594 544.863281 103.203125 L 544.863281 358.746094 C 544.886719 370.5 535.328125 380.074219 523.574219 380.074219 Z M 523.574219 380.074219 " fill-opacity="1" fill-rule="evenodd"/></g><path fill="#dc3832" d="M 538.449219 140.574219 L 136.324219 140.574219 C 132.769531 140.574219 129.886719 137.6875 129.886719 134.128906 C 129.886719 130.566406 132.769531 127.683594 136.324219 127.683594 L 538.449219 127.683594 C 542.003906 127.683594 544.886719 130.566406 544.886719 134.128906 C 544.886719 137.6875 541.992188 140.574219 538.449219 140.574219 Z M 538.449219 140.574219 " fill-opacity="1" fill-rule="evenodd"/><g clip-path="url(#6353198b08)"><path fill="#dc3832" d="M 226.125 579.597656 L 448.96875 579.597656 L 448.96875 565.445312 C 448.96875 557.632812 442.617188 551.277344 434.832031 551.277344 L 240.273438 551.277344 C 232.472656 551.277344 226.136719 557.632812 226.136719 565.445312 Z M 455.417969 592.492188 L 219.699219 592.492188 C 216.144531 592.492188 213.261719 589.605469 213.261719 586.046875 L 213.261719 565.445312 C 213.261719 550.527344 225.386719 538.386719 240.289062 538.386719 L 434.84375 538.386719 C 449.746094 538.386719 461.871094 550.527344 461.871094 565.445312 L 461.871094 586.046875 C 461.855469 589.605469 458.964844 592.492188 455.417969 592.492188 Z M 455.417969 592.492188 " fill-opacity="1" fill-rule="evenodd"/></g><path fill="#dc3832" d="M 298.101562 551.277344 C 294.546875 551.277344 291.664062 548.394531 291.664062 544.832031 L 291.664062 482.804688 C 291.664062 479.246094 294.546875 476.359375 298.101562 476.359375 C 301.660156 476.359375 304.539062 479.246094 304.539062 482.804688 L 304.539062 544.832031 C 304.539062 548.394531 301.660156 551.289062 298.101562 551.277344 Z M 376.988281 551.277344 C 373.433594 551.277344 370.550781 548.394531 370.550781 544.832031 L 370.550781 482.804688 C 370.550781 479.246094 373.433594 476.359375 376.988281 476.359375 C 380.546875 476.359375 383.429688 479.246094 383.429688 482.804688 L 383.429688 544.832031 C 383.441406 548.394531 380.546875 551.289062 376.988281 551.277344 Z M 376.988281 551.277344 " fill-opacity="1" fill-rule="evenodd"/><g clip-path="url(#ed4f24b500)"><path fill="#dc3832" d="M 612.148438 445.023438 L 62.613281 445.023438 C 59.058594 445.023438 56.175781 442.140625 56.175781 438.582031 C 56.175781 435.019531 59.058594 432.136719 62.613281 432.136719 L 612.160156 432.136719 C 615.71875 432.136719 618.597656 435.019531 618.597656 438.582031 C 618.597656 442.128906 615.707031 445.023438 612.148438 445.023438 Z M 612.148438 445.023438 " fill-opacity="1" fill-rule="evenodd"/></g><g clip-path="url(#6b4dd8d13e)"><path fill="#dc3832" d="M 612.148438 489.25 L 62.613281 489.25 C 59.058594 489.25 56.175781 486.363281 56.175781 482.804688 L 56.175781 187.121094 C 56.175781 183.5625 59.058594 180.675781 62.613281 180.675781 L 136.324219 180.675781 C 139.882812 180.675781 142.761719 183.5625 142.761719 187.121094 C 142.761719 190.679688 139.882812 193.566406 136.324219 193.566406 L 69.050781 193.566406 L 69.050781 476.359375 L 605.722656 476.359375 L 605.722656 193.566406 L 538.449219 193.566406 C 534.878906 193.566406 532.011719 190.679688 532.011719 187.121094 C 532.011719 183.5625 534.878906 180.675781 538.449219 180.675781 L 612.160156 180.675781 C 615.71875 180.675781 618.597656 183.5625 618.597656 187.121094 L 618.597656 482.804688 C 618.597656 486.363281 615.707031 489.25 612.148438 489.25 Z M 612.148438 489.25 " fill-opacity="1" fill-rule="evenodd"/></g></svg>