<svg xmlns="http://www.w3.org/2000/svg" xmlns:xlink="http://www.w3.org/1999/xlink" width="900" zoomAndPan="magnify" viewBox="0 0 675 675.000002" height="900" preserveAspectRatio="xMidYMid meet" version="1.0"><defs><clipPath id="fced36ea76"><path d="M 273.878906 281.003906 L 496.300781 281.003906 L 496.300781 503.425781 L 273.878906 503.425781 Z M 273.878906 281.003906 " clip-rule="nonzero"/></clipPath><clipPath id="299abd368c"><path d="M 195 44 L 339 44 L 339 165 L 195 165 Z M 195 44 " clip-rule="nonzero"/></clipPath><clipPath id="2c411bd733"><path d="M 138.976562 77.523438 L 322.15625 38.832031 L 361.464844 224.945312 L 178.28125 263.632812 Z M 138.976562 77.523438 " clip-rule="nonzero"/></clipPath><clipPath id="b6c8578981"><path d="M 322.488281 38.761719 L 139.308594 77.453125 L 178.613281 263.5625 L 361.796875 224.875 Z M 322.488281 38.761719 " clip-rule="nonzero"/></clipPath><clipPath id="20ba416bcc"><path d="M 151 88 L 315 88 L 315 247 L 151 247 Z M 151 88 " clip-rule="nonzero"/></clipPath><clipPath id="189cbac9ef"><path d="M 138.976562 77.523438 L 322.15625 38.832031 L 361.464844 224.945312 L 178.28125 263.632812 Z M 138.976562 77.523438 " clip-rule="nonzero"/></clipPath><clipPath id="988c9f425d"><path d="M 322.488281 38.761719 L 139.308594 77.453125 L 178.613281 263.5625 L 361.796875 224.875 Z M 322.488281 38.761719 " clip-rule="nonzero"/></clipPath><clipPath id="50ac8298cd"><path d="M 419.539062 65.644531 L 573.808594 65.644531 L 573.808594 219.917969 L 419.539062 219.917969 Z M 419.539062 65.644531 " clip-rule="nonzero"/></clipPath><clipPath id="990b565181"><path d="M 61 275 L 201 275 L 201 415 L 61 415 Z M 61 275 " clip-rule="nonzero"/></clipPath><clipPath id="b01efc6846"><path d="M 49.183594 290.429688 L 185.859375 263.542969 L 212.746094 400.21875 L 76.070312 427.105469 Z M 49.183594 290.429688 " clip-rule="nonzero"/></clipPath><clipPath id="4561570c9b"><path d="M 49.183594 290.429688 L 185.859375 263.542969 L 212.746094 400.21875 L 76.070312 427.105469 Z M 49.183594 290.429688 " clip-rule="nonzero"/></clipPath><clipPath id="8c440532b0"><path d="M 119.804688 476.027344 L 250.113281 476.027344 L 250.113281 606.332031 L 119.804688 606.332031 Z M 119.804688 476.027344 " clip-rule="nonzero"/></clipPath></defs><path fill="#dc3832" d="M 614.066406 576.800781 L 556.253906 518.988281 C 553.050781 515.863281 548.441406 514.613281 544.144531 515.785156 L 507.269531 478.910156 C 555.628906 410.863281 539.769531 316.492188 471.722656 268.132812 C 403.679688 219.773438 309.304688 235.554688 260.867188 303.601562 C 212.429688 371.644531 228.445312 466.019531 296.414062 514.457031 C 348.835938 551.800781 419.226562 551.800781 471.644531 514.457031 L 508.519531 551.332031 C 507.347656 555.628906 508.597656 560.238281 511.722656 563.441406 L 569.535156 621.253906 C 581.722656 633.675781 601.566406 633.832031 613.988281 621.722656 C 626.410156 609.613281 626.566406 589.691406 614.457031 577.269531 C 614.378906 577.113281 614.222656 576.957031 614.066406 576.800781 Z M 245.945312 391.488281 C 245.945312 315.085938 307.898438 253.132812 384.304688 253.132812 C 460.710938 253.132812 522.660156 315.085938 522.660156 391.488281 C 522.660156 467.894531 460.707031 529.847656 384.304688 529.847656 C 307.976562 529.769531 246.023438 467.894531 245.945312 391.488281 Z M 499.457031 488.910156 L 533.988281 523.441406 L 516.253906 541.175781 L 481.722656 506.644531 C 488.128906 501.253906 494.066406 495.316406 499.457031 488.910156 Z M 605.160156 612.347656 C 597.660156 619.457031 585.941406 619.457031 578.519531 612.347656 L 520.707031 554.535156 L 547.347656 527.894531 L 605.160156 585.707031 C 612.503906 593.050781 612.582031 605.003906 605.160156 612.347656 Z M 384.304688 272.039062 C 318.289062 272.039062 264.851562 325.554688 264.851562 391.488281 C 264.851562 457.425781 318.367188 510.941406 384.304688 510.941406 C 450.242188 510.941406 503.753906 457.425781 503.753906 391.488281 C 503.753906 325.554688 450.242188 272.117188 384.304688 272.039062 Z M 384.304688 498.363281 C 325.242188 498.363281 277.429688 450.550781 277.429688 391.488281 C 277.429688 332.425781 325.242188 284.617188 384.304688 284.617188 C 443.367188 284.617188 491.175781 332.503906 491.175781 391.488281 C 491.175781 450.472656 443.367188 498.363281 384.304688 498.363281 Z M 384.304688 498.363281 " fill-opacity="1" fill-rule="nonzero"/><g clip-path="url(#fced36ea76)"><path fill="#1a4789" d="M 496.3125 392.21875 C 496.3125 394.039062 496.265625 395.855469 496.175781 397.675781 C 496.085938 399.492188 495.953125 401.308594 495.777344 403.117188 C 495.597656 404.929688 495.375 406.734375 495.105469 408.535156 C 494.839844 410.335938 494.527344 412.128906 494.175781 413.914062 C 493.820312 415.699219 493.421875 417.472656 492.976562 419.238281 C 492.535156 421.003906 492.050781 422.757812 491.523438 424.5 C 490.992188 426.242188 490.421875 427.96875 489.808594 429.683594 C 489.195312 431.398438 488.542969 433.09375 487.84375 434.777344 C 487.148438 436.457031 486.410156 438.121094 485.632812 439.765625 C 484.855469 441.410156 484.039062 443.035156 483.179688 444.640625 C 482.320312 446.246094 481.425781 447.832031 480.488281 449.390625 C 479.554688 450.953125 478.578125 452.488281 477.570312 454.003906 C 476.558594 455.515625 475.507812 457.003906 474.425781 458.464844 C 473.339844 459.929688 472.222656 461.363281 471.066406 462.769531 C 469.914062 464.175781 468.722656 465.554688 467.5 466.902344 C 466.28125 468.25 465.023438 469.570312 463.738281 470.855469 C 462.449219 472.144531 461.132812 473.398438 459.785156 474.621094 C 458.4375 475.84375 457.058594 477.03125 455.652344 478.183594 C 454.246094 479.339844 452.808594 480.460938 451.347656 481.542969 C 449.886719 482.628906 448.398438 483.675781 446.886719 484.6875 C 445.371094 485.699219 443.835938 486.671875 442.273438 487.605469 C 440.710938 488.542969 439.128906 489.4375 437.523438 490.296875 C 435.917969 491.15625 434.292969 491.972656 432.648438 492.75 C 431.003906 493.53125 429.339844 494.265625 427.660156 494.964844 C 425.976562 495.660156 424.28125 496.316406 422.566406 496.929688 C 420.851562 497.539062 419.125 498.113281 417.382812 498.640625 C 415.640625 499.167969 413.886719 499.652344 412.121094 500.097656 C 410.355469 500.539062 408.582031 500.9375 406.796875 501.292969 C 405.011719 501.648438 403.21875 501.957031 401.417969 502.226562 C 399.617188 502.492188 397.8125 502.714844 396 502.894531 C 394.1875 503.070312 392.375 503.207031 390.558594 503.292969 C 388.738281 503.382812 386.917969 503.429688 385.101562 503.429688 C 383.28125 503.429688 381.460938 503.382812 379.644531 503.292969 C 377.824219 503.207031 376.011719 503.070312 374.199219 502.894531 C 372.386719 502.714844 370.582031 502.492188 368.78125 502.226562 C 366.980469 501.957031 365.1875 501.648438 363.402344 501.292969 C 361.617188 500.9375 359.84375 500.539062 358.078125 500.097656 C 356.3125 499.652344 354.558594 499.167969 352.816406 498.640625 C 351.074219 498.113281 349.347656 497.539062 347.632812 496.929688 C 345.921875 496.316406 344.222656 495.660156 342.542969 494.964844 C 340.859375 494.265625 339.195312 493.53125 337.550781 492.75 C 335.90625 491.972656 334.28125 491.15625 332.675781 490.296875 C 331.070312 489.4375 329.488281 488.542969 327.925781 487.605469 C 326.363281 486.671875 324.828125 485.699219 323.3125 484.6875 C 321.800781 483.675781 320.3125 482.628906 318.851562 481.542969 C 317.390625 480.460938 315.957031 479.339844 314.546875 478.183594 C 313.140625 477.03125 311.761719 475.84375 310.414062 474.621094 C 309.066406 473.398438 307.75 472.144531 306.460938 470.855469 C 305.175781 469.570312 303.921875 468.25 302.699219 466.902344 C 301.476562 465.554688 300.285156 464.175781 299.132812 462.769531 C 297.976562 461.363281 296.859375 459.929688 295.773438 458.464844 C 294.691406 457.003906 293.640625 455.515625 292.632812 454.003906 C 291.621094 452.488281 290.648438 450.953125 289.710938 449.390625 C 288.773438 447.832031 287.878906 446.246094 287.019531 444.640625 C 286.164062 443.035156 285.34375 441.410156 284.566406 439.765625 C 283.789062 438.121094 283.050781 436.457031 282.355469 434.777344 C 281.65625 433.09375 281.003906 431.398438 280.390625 429.683594 C 279.777344 427.96875 279.207031 426.242188 278.675781 424.5 C 278.148438 422.757812 277.664062 421.003906 277.222656 419.238281 C 276.777344 417.472656 276.378906 415.699219 276.027344 413.914062 C 275.671875 412.128906 275.359375 410.335938 275.09375 408.535156 C 274.824219 406.734375 274.601562 404.929688 274.425781 403.117188 C 274.246094 401.308594 274.113281 399.492188 274.023438 397.675781 C 273.933594 395.855469 273.886719 394.039062 273.886719 392.21875 C 273.886719 390.398438 273.933594 388.578125 274.023438 386.761719 C 274.113281 384.941406 274.246094 383.128906 274.425781 381.316406 C 274.601562 379.503906 274.824219 377.699219 275.09375 375.898438 C 275.359375 374.097656 275.671875 372.304688 276.027344 370.519531 C 276.378906 368.738281 276.777344 366.960938 277.222656 365.195312 C 277.664062 363.429688 278.148438 361.675781 278.675781 359.933594 C 279.207031 358.191406 279.777344 356.464844 280.390625 354.75 C 281.003906 353.039062 281.65625 351.339844 282.355469 349.660156 C 283.050781 347.976562 283.789062 346.3125 284.566406 344.667969 C 285.34375 343.023438 286.164062 341.398438 287.019531 339.792969 C 287.878906 338.1875 288.773438 336.605469 289.710938 335.042969 C 290.648438 333.484375 291.621094 331.945312 292.632812 330.433594 C 293.640625 328.917969 294.691406 327.429688 295.773438 325.96875 C 296.859375 324.507812 297.976562 323.074219 299.132812 321.667969 C 300.285156 320.257812 301.476562 318.882812 302.699219 317.53125 C 303.921875 316.183594 305.175781 314.867188 306.460938 313.578125 C 307.75 312.292969 309.066406 311.039062 310.414062 309.816406 C 311.761719 308.59375 313.140625 307.40625 314.546875 306.25 C 315.957031 305.09375 317.390625 303.976562 318.851562 302.890625 C 320.3125 301.808594 321.800781 300.761719 323.3125 299.75 C 324.828125 298.738281 326.363281 297.765625 327.925781 296.828125 C 329.488281 295.894531 331.070312 294.996094 332.675781 294.136719 C 334.28125 293.28125 335.90625 292.460938 337.550781 291.683594 C 339.195312 290.90625 340.859375 290.167969 342.542969 289.472656 C 344.222656 288.777344 345.921875 288.121094 347.632812 287.507812 C 349.347656 286.894531 351.074219 286.324219 352.816406 285.796875 C 354.558594 285.265625 356.3125 284.78125 358.078125 284.339844 C 359.84375 283.898438 361.617188 283.5 363.402344 283.144531 C 365.1875 282.789062 366.980469 282.476562 368.78125 282.210938 C 370.582031 281.941406 372.386719 281.71875 374.199219 281.542969 C 376.011719 281.363281 377.824219 281.230469 379.644531 281.140625 C 381.460938 281.050781 383.28125 281.007812 385.101562 281.007812 C 386.917969 281.007812 388.738281 281.050781 390.558594 281.140625 C 392.375 281.230469 394.1875 281.363281 396 281.542969 C 397.8125 281.71875 399.617188 281.941406 401.417969 282.210938 C 403.21875 282.476562 405.011719 282.789062 406.796875 283.144531 C 408.582031 283.5 410.355469 283.898438 412.121094 284.339844 C 413.886719 284.78125 415.640625 285.265625 417.382812 285.796875 C 419.125 286.324219 420.851562 286.894531 422.566406 287.507812 C 424.28125 288.121094 425.976562 288.777344 427.660156 289.472656 C 429.339844 290.167969 431.003906 290.90625 432.648438 291.683594 C 434.292969 292.460938 435.917969 293.28125 437.523438 294.136719 C 439.128906 294.996094 440.710938 295.894531 442.273438 296.828125 C 443.835938 297.765625 445.371094 298.738281 446.886719 299.75 C 448.398438 300.761719 449.886719 301.808594 451.347656 302.890625 C 452.808594 303.976562 454.246094 305.09375 455.652344 306.25 C 457.058594 307.40625 458.4375 308.59375 459.785156 309.816406 C 461.132812 311.039062 462.449219 312.292969 463.738281 313.578125 C 465.023438 314.867188 466.28125 316.183594 467.5 317.53125 C 468.722656 318.882812 469.914062 320.257812 471.066406 321.667969 C 472.222656 323.074219 473.339844 324.507812 474.425781 325.96875 C 475.507812 327.429688 476.558594 328.917969 477.570312 330.433594 C 478.578125 331.945312 479.554688 333.484375 480.488281 335.042969 C 481.425781 336.605469 482.320312 338.1875 483.179688 339.792969 C 484.039062 341.398438 484.855469 343.023438 485.632812 344.667969 C 486.410156 346.3125 487.148438 347.976562 487.84375 349.660156 C 488.542969 351.339844 489.195312 353.039062 489.808594 354.75 C 490.421875 356.464844 490.992188 358.191406 491.523438 359.933594 C 492.050781 361.675781 492.535156 363.429688 492.976562 365.195312 C 493.421875 366.960938 493.820312 368.738281 494.175781 370.519531 C 494.527344 372.304688 494.839844 374.097656 495.105469 375.898438 C 495.375 377.699219 495.597656 379.503906 495.777344 381.316406 C 495.953125 383.128906 496.085938 384.941406 496.175781 386.761719 C 496.265625 388.578125 496.3125 390.398438 496.3125 392.21875 Z M 496.3125 392.21875 " fill-opacity="1" fill-rule="nonzero"/></g><path fill="#ffffff" d="M 413.015625 397.9375 L 416.160156 373.558594 L 392.015625 373.558594 L 392.015625 357.992188 C 392.015625 350.933594 393.984375 346.121094 404.105469 346.121094 L 417.003906 346.113281 L 417.003906 324.308594 C 414.777344 324.011719 407.121094 323.347656 398.195312 323.347656 C 379.582031 323.347656 366.84375 334.714844 366.84375 355.578125 L 366.84375 373.558594 L 345.789062 373.558594 L 345.789062 397.9375 L 366.84375 397.9375 L 366.84375 460.492188 L 392.015625 460.492188 L 392.015625 397.9375 Z M 413.015625 397.9375 " fill-opacity="1" fill-rule="nonzero"/><g clip-path="url(#299abd368c)"><g clip-path="url(#2c411bd733)"><g clip-path="url(#b6c8578981)"><path fill="#dc3832" d="M 312.6875 149.253906 C 330.175781 145.558594 341.398438 128.296875 337.695312 110.765625 L 329.210938 70.585938 C 325.507812 53.058594 308.261719 41.804688 290.773438 45.5 L 221.429688 60.144531 C 206.625 63.273438 195.8125 76.527344 195.710938 91.65625 C 195.703125 93.996094 195.9375 96.339844 196.421875 98.632812 L 204.910156 138.8125 C 208.613281 156.339844 225.851562 167.59375 243.34375 163.898438 Z M 312.6875 149.253906 " fill-opacity="1" fill-rule="nonzero"/></g></g></g><g clip-path="url(#20ba416bcc)"><g clip-path="url(#189cbac9ef)"><g clip-path="url(#988c9f425d)"><path fill="#dc3832" d="M 152.335938 139.136719 L 160.820312 179.3125 C 165.722656 202.515625 188.542969 217.414062 211.695312 212.523438 L 215.90625 211.632812 L 261.242188 246.074219 L 252.339844 203.9375 L 281.039062 197.878906 C 290.675781 195.839844 299.378906 190.503906 305.546875 182.835938 C 310.433594 176.773438 313.578125 169.464844 314.652344 161.824219 L 245.96875 176.332031 C 221.636719 181.46875 197.652344 165.8125 192.503906 141.433594 L 184.019531 101.25 C 183.347656 98.074219 183.015625 94.816406 183.03125 91.566406 C 183.035156 90.625 183.070312 89.679688 183.140625 88.746094 C 161.3125 94.613281 147.601562 116.71875 152.335938 139.136719 Z M 152.335938 139.136719 " fill-opacity="1" fill-rule="nonzero"/></g></g></g><g clip-path="url(#50ac8298cd)"><path fill="#dc3832" d="M 551.164062 86.742188 C 536.601562 73.199219 517.253906 65.738281 496.679688 65.738281 C 476.105469 65.738281 456.757812 73.199219 442.195312 86.742188 C 427.585938 100.332031 419.539062 118.410156 419.539062 137.652344 C 419.539062 158.796875 429.398438 178.679688 446.632812 192.378906 L 446.632812 217.476562 C 446.632812 218.285156 447.046875 219.035156 447.730469 219.460938 C 448.109375 219.695312 448.535156 219.816406 448.964844 219.816406 C 449.316406 219.816406 449.667969 219.734375 449.992188 219.574219 L 475.75 206.886719 C 482.53125 208.667969 489.566406 209.570312 496.679688 209.570312 C 517.25 209.570312 536.601562 202.109375 551.164062 188.566406 C 565.773438 174.976562 573.820312 156.894531 573.820312 137.652344 C 573.820312 118.410156 565.773438 100.332031 551.164062 86.742188 Z M 544.324219 119.386719 L 505.570312 162.042969 C 505.429688 162.199219 505.226562 162.292969 505.015625 162.296875 C 505.007812 162.296875 505.003906 162.296875 504.996094 162.296875 C 504.789062 162.296875 504.59375 162.214844 504.445312 162.070312 L 484.523438 142.113281 L 449.871094 161.003906 C 449.53125 161.191406 449.109375 161.097656 448.875 160.789062 C 448.644531 160.476562 448.675781 160.042969 448.949219 159.769531 L 488.421875 120.226562 C 488.722656 119.921875 489.214844 119.921875 489.519531 120.226562 L 508.820312 139.5625 L 543.339844 118.199219 C 543.671875 117.996094 544.101562 118.066406 544.347656 118.363281 C 544.59375 118.664062 544.585938 119.097656 544.324219 119.386719 Z M 544.324219 119.386719 " fill-opacity="1" fill-rule="nonzero"/></g><g clip-path="url(#990b565181)"><g clip-path="url(#b01efc6846)"><g clip-path="url(#4561570c9b)"><path fill="#dc3832" d="M 169.777344 287.496094 C 154.332031 277.128906 135.773438 273.394531 117.519531 276.988281 C 99.265625 280.578125 83.503906 291.0625 73.136719 306.507812 C 62.769531 321.953125 59.035156 340.511719 62.628906 358.765625 C 66.21875 377.019531 76.703125 392.78125 92.148438 403.152344 C 107.59375 413.519531 126.15625 417.25 144.40625 413.660156 C 162.660156 410.070312 178.421875 399.585938 188.792969 384.136719 C 199.160156 368.691406 202.890625 350.132812 199.300781 331.878906 C 195.710938 313.625 185.226562 297.863281 169.777344 287.496094 Z M 147.933594 323.191406 C 147.429688 319.949219 147.910156 316.726562 149.285156 314.117188 C 150.773438 311.285156 153.117188 309.496094 155.90625 309.058594 C 158.683594 308.625 161.46875 309.625 163.75 311.871094 C 165.851562 313.9375 167.285156 316.863281 167.789062 320.109375 C 168.292969 323.351562 167.8125 326.574219 166.4375 329.183594 C 165.007812 331.902344 162.78125 333.667969 160.148438 334.183594 C 160.039062 334.207031 159.929688 334.226562 159.816406 334.242188 C 157.039062 334.675781 154.253906 333.675781 151.972656 331.429688 C 149.871094 329.363281 148.4375 326.4375 147.933594 323.191406 Z M 122.695312 303.296875 C 129.804688 301.898438 137.050781 308.203125 138.847656 317.347656 C 140.648438 326.492188 136.328125 335.070312 129.222656 336.46875 C 122.113281 337.867188 114.871094 331.5625 113.070312 322.417969 C 111.273438 313.273438 115.589844 304.695312 122.695312 303.296875 Z M 87.949219 326.78125 C 89.210938 323.839844 91.410156 321.863281 94.144531 321.207031 C 96.878906 320.554688 99.738281 321.328125 102.1875 323.382812 C 104.449219 325.277344 106.113281 328.078125 106.875 331.269531 C 107.636719 334.460938 107.417969 337.714844 106.257812 340.425781 C 105 343.367188 102.800781 345.34375 100.0625 346 C 99.957031 346.023438 99.847656 346.046875 99.738281 346.070312 C 97.101562 346.589844 94.375 345.796875 92.019531 343.824219 C 89.761719 341.929688 88.09375 339.128906 87.332031 335.9375 C 86.570312 332.742188 86.789062 329.492188 87.949219 326.78125 Z M 95.171875 379.074219 C 94.03125 379.300781 91.0625 379.617188 88.167969 377.703125 C 86.101562 376.335938 84.699219 374.253906 84.226562 371.839844 C 83.625 368.78125 84.363281 365.460938 86.421875 361.964844 C 87.617188 359.933594 88.988281 358.15625 90.496094 356.691406 C 93.722656 353.542969 97.730469 351.261719 102.40625 349.914062 L 106.632812 348.695312 L 103.972656 352.167969 C 102.296875 354.359375 100.183594 358 99.65625 362.890625 C 99.011719 368.820312 101.070312 373.476562 102.355469 375.726562 L 103.351562 377.46875 Z M 163.71875 366.980469 C 161.390625 370.742188 157.441406 371.890625 155.851562 372.210938 C 155.847656 372.210938 155.84375 372.210938 155.839844 372.214844 L 118.855469 379.488281 C 112.125 380.8125 105.570312 376.414062 104.246094 369.683594 C 103.039062 363.546875 105.90625 356.425781 112.316406 349.640625 C 116.757812 344.941406 123.0625 341.574219 130.074219 340.167969 C 137.207031 338.726562 144.496094 339.472656 150.574219 342.253906 C 153.46875 343.578125 163.0625 348.609375 164.914062 357.734375 C 165.25 359.382812 166.03125 363.238281 163.71875 366.980469 Z M 182.835938 359.078125 C 180.882812 361.945312 178.015625 362.777344 176.875 363.003906 L 168.695312 364.613281 L 168.957031 362.625 C 169.292969 360.058594 169.4375 354.964844 166.59375 349.722656 C 164.25 345.394531 160.917969 342.824219 158.535156 341.433594 L 154.761719 339.226562 L 159.132812 338.753906 C 163.96875 338.230469 168.542969 338.824219 172.722656 340.511719 C 174.671875 341.300781 176.613281 342.425781 178.492188 343.851562 C 181.71875 346.308594 183.664062 349.101562 184.265625 352.160156 C 184.738281 354.574219 184.230469 357.03125 182.835938 359.078125 Z M 182.835938 359.078125 " fill-opacity="1" fill-rule="nonzero"/></g></g></g><g clip-path="url(#8c440532b0)"><path fill="#dc3832" d="M 250.117188 541.183594 C 250.117188 519.921875 239.699219 499.945312 222.246094 487.746094 C 211.277344 480.078125 198.382812 476.027344 184.960938 476.027344 C 184.140625 476.027344 183.261719 476.046875 182.28125 476.085938 C 182.277344 476.085938 182.269531 476.085938 182.261719 476.085938 C 182.261719 476.085938 182.257812 476.085938 182.253906 476.085938 C 170.824219 476.554688 159.691406 480.035156 150.0625 486.15625 C 140.667969 492.125 132.90625 500.449219 127.617188 510.226562 C 127.617188 510.226562 127.613281 510.230469 127.613281 510.234375 C 127.609375 510.238281 127.605469 510.246094 127.605469 510.25 C 122.503906 519.691406 119.804688 530.386719 119.804688 541.183594 C 119.804688 558.585938 126.582031 574.949219 138.890625 587.253906 C 151.195312 599.558594 167.558594 606.335938 184.960938 606.335938 C 202.128906 606.335938 218.335938 599.71875 230.585938 587.695312 C 242.824219 575.691406 249.753906 559.648438 250.101562 542.53125 C 250.109375 542.082031 250.117188 541.632812 250.117188 541.183594 Z M 246.09375 541.183594 C 246.09375 541.296875 246.09375 541.414062 246.089844 541.53125 C 245.820312 541.902344 244.648438 543.445312 242.957031 543.457031 C 242.152344 543.460938 241.53125 543.117188 240.59375 542.601562 C 239.464844 541.976562 238.679688 541.25 238.199219 540.75 C 237.265625 539.777344 237.144531 539.144531 235.878906 537.308594 C 234.921875 535.921875 234.171875 534.785156 233.570312 533.875 C 231.917969 531.367188 231.007812 529.984375 229.050781 528.429688 C 226.6875 526.546875 224.207031 525.652344 222.214844 524.933594 L 221.90625 524.820312 C 220.648438 524.367188 219.6875 524.101562 218.757812 523.84375 C 217.464844 523.488281 216.351562 523.179688 214.566406 522.390625 C 212.605469 521.519531 211.335938 520.71875 210.992188 520.140625 C 210.363281 519.089844 210.472656 517.863281 210.695312 516.242188 C 210.964844 514.261719 211.59375 513.113281 212.152344 512.097656 C 212.8125 510.890625 213.5625 509.523438 213.136719 507.574219 C 212.773438 505.921875 211.855469 505.167969 210.691406 504.214844 C 210.082031 503.710938 209.796875 503.433594 209.335938 503.066406 C 207.40625 501.515625 206.96875 501.347656 206.390625 500.828125 C 205.140625 499.710938 203.9375 497.617188 204.195312 495.558594 C 204.460938 493.449219 206.164062 492.164062 207.488281 491.167969 C 210.574219 488.84375 214.015625 488.484375 215.917969 488.457031 C 217.285156 489.265625 218.628906 490.125 219.941406 491.042969 C 236.316406 502.488281 246.09375 521.234375 246.09375 541.183594 Z M 152.21875 489.550781 C 160.957031 483.996094 171.015625 480.761719 181.371094 480.15625 C 181.710938 480.71875 182.449219 482.101562 182.40625 483.992188 C 182.390625 484.683594 182.257812 486.011719 181.46875 487.335938 C 180.53125 488.910156 179.101562 489.632812 176.285156 491.015625 C 175.898438 491.207031 174.722656 491.753906 171.828125 492.890625 C 169.601562 493.769531 167.761719 494.398438 166.164062 494.945312 C 162.304688 496.269531 160.4375 497.113281 158.988281 498.21875 C 156.308594 500.253906 154.953125 502.746094 154.203125 504.164062 C 153.609375 505.277344 152.550781 507.304688 152.117188 510.113281 C 151.5 514.109375 152.738281 515.839844 151.570312 516.832031 C 150.675781 517.597656 148.902344 517.089844 145.351562 516.074219 C 142.113281 515.152344 141.992188 514.660156 139.386719 514.160156 C 137.492188 513.792969 136.789062 513.90625 135.457031 513.332031 C 133.796875 512.617188 132.675781 511.488281 131.992188 510.652344 C 136.921875 502.121094 143.882812 494.847656 152.21875 489.550781 Z M 167.261719 563.964844 C 166.800781 560.34375 166.761719 557.328125 166.804688 555.3125 C 166.867188 551.871094 165.949219 549.382812 165.472656 548.628906 C 164.855469 547.648438 164.03125 546.847656 164.03125 546.847656 C 164 546.820312 163.96875 546.789062 163.9375 546.757812 C 161.652344 544.714844 159.5 542.460938 157.546875 540.058594 C 155.484375 537.53125 154.398438 536.226562 153.601562 534.0625 C 152.496094 531.066406 151.84375 526.191406 154.207031 524.347656 C 154.441406 524.164062 154.941406 523.828125 156.785156 523.589844 C 161.550781 522.972656 163.933594 524.488281 170.292969 524.855469 C 171.460938 524.921875 171.117188 524.886719 172.40625 524.925781 C 177.785156 525.089844 181.335938 525.199219 184.59375 527.679688 C 184.894531 527.917969 186.253906 529.300781 188.152344 531.222656 C 193.175781 536.316406 194.242188 537.855469 194.296875 538.601562 C 194.414062 540.113281 193.621094 541.421875 192.214844 543.597656 C 191.03125 545.429688 189.890625 546.394531 188.3125 547.730469 C 187.796875 548.167969 187.261719 548.617188 186.679688 549.140625 C 184.257812 551.3125 182.632812 553.320312 179.402344 557.320312 L 179.378906 557.34375 C 178.25 559.039062 176.59375 561.707031 175 565.179688 C 172.136719 571.425781 171.78125 575.21875 170.597656 575.199219 C 168.683594 575.164062 167.40625 565.128906 167.261719 563.964844 Z M 167.261719 563.964844 " fill-opacity="1" fill-rule="nonzero"/></g></svg>